<svg width="192" height="44" viewBox="0 0 192 44" fill="none" xmlns="http://www.w3.org/2000/svg">
<path d="M30.345 31.7031C30.3918 33.375 30.1262 34.7969 29.5481 35.9688C28.97 37.1562 28.1809 38.1562 27.1809 38.9688C26.1965 39.7656 25.0481 40.4141 23.7356 40.9141C22.4075 41.3984 21.0247 41.7734 19.5872 42.0391C18.134 42.2891 16.6731 42.4531 15.2043 42.5312C13.7356 42.6094 12.3606 42.6484 11.0793 42.6484C9.78247 42.6484 8.33716 42.6094 6.74341 42.5312C5.16528 42.4688 3.43091 42.3594 1.54028 42.2031L0.532471 8.07812C2.15747 7.78125 3.7356 7.5625 5.26685 7.42188C6.7981 7.26562 8.16528 7.15625 9.36841 7.09375C10.7747 7.01562 12.1028 6.99219 13.3528 7.02344C14.5559 7.03906 15.7512 7.10938 16.9387 7.23438C18.1418 7.34375 19.2903 7.53125 20.384 7.79688C21.4934 8.04688 22.5247 8.39844 23.4778 8.85156C24.4153 9.28906 25.2434 9.86719 25.9622 10.5859C26.6653 11.2891 27.22 12.1406 27.6262 13.1406C28.0325 14.125 28.2356 15.2891 28.2356 16.6328C28.2356 18.3828 27.9153 19.8828 27.2747 21.1328C26.634 22.3672 25.7981 23.3906 24.7668 24.2031C26.0168 24.625 27.0168 25.2266 27.7668 26.0078C28.5325 26.7734 29.1262 27.6328 29.5481 28.5859C29.9543 29.5234 30.22 30.5625 30.345 31.7031ZM13.4465 11.2891C12.7278 11.2891 11.9309 11.3125 11.0559 11.3594C10.3215 11.3906 9.47778 11.4531 8.52466 11.5469C7.58716 11.6406 6.58716 11.7656 5.52466 11.9219L5.89966 23.875C7.24341 23.8438 8.46216 23.8047 9.55591 23.7578C10.6653 23.6953 11.6184 23.6406 12.4153 23.5938C12.884 23.5625 13.3293 23.5312 13.7512 23.5C14.1731 23.4688 14.5637 23.4375 14.9231 23.4062C16.0793 23.3438 17.1809 23.1562 18.2278 22.8438C19.2903 22.5156 20.2122 22.0703 20.9934 21.5078C21.7747 20.9453 22.3762 20.2578 22.7981 19.4453C23.2356 18.6328 23.3997 17.6953 23.2903 16.6328C23.1965 15.8359 22.9856 15.1484 22.6575 14.5703C22.0012 13.4297 21.0012 12.5938 19.6575 12.0625C19.0481 11.8281 18.3762 11.6328 17.6418 11.4766C16.9387 11.3516 16.2278 11.2812 15.509 11.2656C14.7903 11.2344 14.1028 11.2422 13.4465 11.2891ZM17.8997 27.1797C17.7434 27.1953 17.4543 27.2188 17.0325 27.25C16.6106 27.2812 16.2043 27.3125 15.8137 27.3438C15.4231 27.375 15.1887 27.3906 15.1106 27.3906L12.345 27.6016C11.5012 27.6641 10.5325 27.7344 9.43872 27.8125C8.34497 27.875 7.21216 27.9375 6.04028 28L6.39185 38.3828C6.6106 38.3984 6.82935 38.4141 7.0481 38.4297C7.26685 38.4297 7.47778 38.4297 7.68091 38.4297H8.9231C9.28247 38.4297 9.69653 38.4297 10.1653 38.4297C10.634 38.4297 11.1497 38.4219 11.7122 38.4062C12.8215 38.4062 13.9856 38.3516 15.2043 38.2422C16.4387 38.1328 17.6731 37.9531 18.9075 37.7031C20.1262 37.4375 21.2278 37.0625 22.2122 36.5781C23.1809 36.0781 23.9543 35.4453 24.5325 34.6797C25.1262 33.8984 25.3997 32.9219 25.3528 31.75C25.2122 30.9062 24.8528 30.1484 24.2747 29.4766C23.6653 28.7891 22.8372 28.2344 21.7903 27.8125C20.759 27.3906 19.4622 27.1797 17.8997 27.1797Z" fill="white"/>
<path d="M58.9622 42.4609L53.6184 42.5547L53.5247 35.8281C53.009 36.75 52.4231 37.625 51.7668 38.4531C51.1106 39.2656 50.3997 39.9766 49.634 40.5859C48.8684 41.2109 48.0481 41.7031 47.1731 42.0625C46.3137 42.4219 45.4075 42.5859 44.4543 42.5547C43.0325 42.5078 41.8293 42.2422 40.845 41.7578C39.845 41.2734 38.9934 40.625 38.2903 39.8125C37.6028 39 37.0559 38.0703 36.6497 37.0234C36.2122 35.9297 35.8918 34.8203 35.6887 33.6953C35.47 32.5234 35.3215 31.3281 35.2434 30.1094C35.1809 28.875 35.1497 27.6797 35.1497 26.5234C35.1497 24.8984 35.22 23.2578 35.3606 21.6016C35.5012 19.9297 35.7043 18.2266 35.97 16.4922L40.7747 16.6328C40.5247 18.5703 40.3528 20.3125 40.259 21.8594C40.1809 23.4062 40.1418 24.7656 40.1418 25.9375C40.1418 26.2031 40.1418 26.5078 40.1418 26.8516C40.1418 27.1797 40.1497 27.5469 40.1653 27.9531C40.1809 28.7656 40.2356 29.6328 40.3293 30.5547C40.4387 31.4609 40.6028 32.3594 40.8215 33.25C41.0247 34.1094 41.3372 34.8984 41.759 35.6172C42.1653 36.3203 42.6653 36.8594 43.259 37.2344C43.8684 37.6094 44.6184 37.7344 45.509 37.6094C46.6965 37.4531 47.9543 36.625 49.2825 35.125C50.595 33.625 51.9622 31.3438 53.384 28.2812L53.2668 22.3281C53.2512 21.5938 53.2356 20.9453 53.22 20.3828C53.2043 19.8047 53.1887 19.3203 53.1731 18.9297C53.1418 17.9922 53.1184 17.3516 53.1028 17.0078L58.1418 16.4453L58.3997 23.7109C58.4309 24.8047 58.4622 25.8359 58.4934 26.8047C58.5247 27.7734 58.5559 28.6875 58.5872 29.5469C58.6184 30.4219 58.6497 31.3828 58.6809 32.4297C58.7122 33.4609 58.7434 34.4297 58.7747 35.3359C58.8059 36.2422 58.8293 36.9609 58.845 37.4922C58.8762 38.6016 58.8997 39.5703 58.9153 40.3984C58.9309 41.2266 58.9465 41.9141 58.9622 42.4609Z" fill="white"/>
<path d="M65.9231 42.0625L65.5247 5.92188L70.6575 5.73438L70.5168 19.5625C71.4231 18.6875 72.3606 18.0156 73.3293 17.5469C74.3137 17.0625 75.22 16.7109 76.0481 16.4922C77.0793 16.2109 78.0247 16.0625 78.884 16.0469C79.9622 16.0469 81.0168 16.1953 82.0481 16.4922C84.1575 17.1016 86.0168 18.2031 87.6262 19.7969C88.4075 20.5625 89.0872 21.4297 89.6653 22.3984C90.2278 23.3516 90.6575 24.3906 90.9543 25.5156C91.2512 26.625 91.384 27.7891 91.3528 29.0078C91.3059 30.3203 91.1028 31.5859 90.7434 32.8047C90.0247 35.1641 88.8684 37.1484 87.2747 38.7578C86.509 39.5547 85.6809 40.2266 84.7903 40.7734C82.9778 41.8984 81.1184 42.4609 79.2122 42.4609C78.7278 42.4453 78.2356 42.3984 77.7356 42.3203C77.2512 42.2422 76.759 42.1406 76.259 42.0156C75.384 41.7969 74.4231 41.4453 73.3762 40.9609C72.3293 40.4766 71.2981 39.7891 70.2825 38.8984V41.9688L65.9231 42.0625ZM86.3137 29.4531C86.3918 28.2812 86.2434 27.1562 85.8684 26.0781C85.509 24.9844 84.9778 24.0234 84.2747 23.1953C83.5559 22.3672 82.6887 21.7109 81.6731 21.2266C80.6731 20.7422 79.5793 20.5078 78.3918 20.5234C76.5012 20.5547 74.845 21.1328 73.4231 22.2578C72.0168 23.3672 71.0168 24.7422 70.4231 26.3828L70.3762 31.9844C70.9231 33.875 71.8997 35.3438 73.3059 36.3906C74.7122 37.4219 76.2668 37.9531 77.97 37.9844C79.1106 38.0156 80.1731 37.8125 81.1575 37.375C82.1575 36.9219 83.0325 36.3125 83.7825 35.5469C84.5168 34.7656 85.1028 33.8594 85.5403 32.8281C85.9934 31.7812 86.2512 30.6562 86.3137 29.4531Z" fill="white"/>
<path d="M96.9075 42.0625L96.509 5.92188L101.642 5.73438L101.501 19.5625C102.407 18.6875 103.345 18.0156 104.314 17.5469C105.298 17.0625 106.204 16.7109 107.032 16.4922C108.064 16.2109 109.009 16.0625 109.868 16.0469C110.947 16.0469 112.001 16.1953 113.032 16.4922C115.142 17.1016 117.001 18.2031 118.611 19.7969C119.392 20.5625 120.072 21.4297 120.65 22.3984C121.212 23.3516 121.642 24.3906 121.939 25.5156C122.236 26.625 122.368 27.7891 122.337 29.0078C122.29 30.3203 122.087 31.5859 121.728 32.8047C121.009 35.1641 119.853 37.1484 118.259 38.7578C117.493 39.5547 116.665 40.2266 115.775 40.7734C113.962 41.8984 112.103 42.4609 110.197 42.4609C109.712 42.4453 109.22 42.3984 108.72 42.3203C108.236 42.2422 107.743 42.1406 107.243 42.0156C106.368 41.7969 105.407 41.4453 104.361 40.9609C103.314 40.4766 102.282 39.7891 101.267 38.8984V41.9688L96.9075 42.0625ZM117.298 29.4531C117.376 28.2812 117.228 27.1562 116.853 26.0781C116.493 24.9844 115.962 24.0234 115.259 23.1953C114.54 22.3672 113.673 21.7109 112.657 21.2266C111.657 20.7422 110.564 20.5078 109.376 20.5234C107.486 20.5547 105.829 21.1328 104.407 22.2578C103.001 23.3672 102.001 24.7422 101.407 26.3828L101.361 31.9844C101.907 33.875 102.884 35.3438 104.29 36.3906C105.697 37.4219 107.251 37.9531 108.954 37.9844C110.095 38.0156 111.157 37.8125 112.142 37.375C113.142 36.9219 114.017 36.3125 114.767 35.5469C115.501 34.7656 116.087 33.8594 116.525 32.8281C116.978 31.7812 117.236 30.6562 117.298 29.4531Z" fill="white"/>
<path d="M137.431 37.3516L136.822 42.0156C135.712 42 134.728 41.8125 133.868 41.4531C133.025 41.0938 132.282 40.625 131.642 40.0469C130.986 39.4844 130.423 38.8359 129.954 38.1016C129.501 37.3672 129.118 36.625 128.806 35.875C128.056 34.0938 127.587 32.0781 127.4 29.8281L128.032 0.109375H132.931L132.72 7.75C132.689 8.90625 132.657 10.0156 132.626 11.0781C132.595 12.125 132.564 13.125 132.532 14.0781C132.486 15.9688 132.439 17.6719 132.392 19.1875C132.361 20.6875 132.329 22.0078 132.298 23.1484C132.22 25.8516 132.173 27.9688 132.157 29.5C132.173 30.9375 132.384 32.2344 132.79 33.3906C133.134 34.4531 133.673 35.375 134.407 36.1562C135.142 36.9219 136.15 37.3203 137.431 37.3516Z" fill="white"/>
<path d="M152.29 38.7109C154.025 38.7109 155.618 38.1953 157.072 37.1641C158.525 36.1172 159.47 34.6641 159.907 32.8047L164.431 33.7188C163.993 35.1406 163.376 36.4297 162.579 37.5859C161.782 38.7422 160.853 39.7344 159.79 40.5625C158.728 41.3906 157.556 42.0312 156.275 42.4844C155.009 42.9375 153.681 43.1641 152.29 43.1641C150.228 43.1641 148.4 42.8516 146.806 42.2266C145.212 41.6016 143.868 40.7188 142.775 39.5781C140.54 37.25 139.423 34.0781 139.423 30.0625C139.423 28.1094 139.751 26.2891 140.407 24.6016C141.079 22.8984 141.993 21.4219 143.15 20.1719C144.306 18.9219 145.665 17.9375 147.228 17.2188C148.79 16.5 150.478 16.1406 152.29 16.1406C153.915 16.1406 155.447 16.4609 156.884 17.1016C158.322 17.7266 159.595 18.5938 160.704 19.7031C161.814 20.8281 162.728 22.1484 163.447 23.6641C164.165 25.1797 164.618 26.8203 164.806 28.5859L144.509 31.6094C144.618 32.7188 144.892 33.7188 145.329 34.6094C145.782 35.4844 146.345 36.2266 147.017 36.8359C148.407 38.0859 150.165 38.7109 152.29 38.7109ZM144.65 27.2734L158.759 25.5625L158.618 25.1172C158.025 23.5703 157.204 22.3594 156.157 21.4844C155.126 20.6094 153.837 20.1719 152.29 20.1719C151.634 20.1719 150.915 20.2891 150.134 20.5234C149.353 20.7422 148.595 21.125 147.861 21.6719C147.126 22.2188 146.462 22.9531 145.868 23.875C145.29 24.7812 144.884 25.9141 144.65 27.2734Z" fill="white"/>
<path d="M191.056 35.7344C191.056 37.2188 190.759 38.4688 190.165 39.4844C189.572 40.4844 188.767 41.3047 187.751 41.9453C186.751 42.5703 185.595 43.0312 184.282 43.3281C182.97 43.6406 181.611 43.8281 180.204 43.8906C178.736 43.8594 177.282 43.7109 175.845 43.4453C174.579 43.2266 173.181 42.8203 171.65 42.2266C170.118 41.6328 168.743 40.8594 167.525 39.9062L169.798 36.3438C170.657 36.7969 171.532 37.2344 172.423 37.6562C173.329 38.0781 174.251 38.4453 175.189 38.7578C176.126 39.0859 177.087 39.3438 178.072 39.5312C179.056 39.7188 180.072 39.8125 181.118 39.8125C182.603 39.8125 183.743 39.5703 184.54 39.0859C185.337 38.5859 185.861 37.9766 186.111 37.2578C186.392 36.3203 186.118 35.4219 185.29 34.5625C185.134 34.4062 184.954 34.2656 184.751 34.1406C184.548 34 184.322 33.8672 184.072 33.7422C183.572 33.5078 182.962 33.3125 182.243 33.1562C181.525 33 180.673 32.8984 179.689 32.8516C178.282 32.7891 176.923 32.6484 175.611 32.4297C174.314 32.1953 173.157 31.8359 172.142 31.3516C171.111 30.8672 170.259 30.2344 169.587 29.4531C168.931 28.6562 168.532 27.6641 168.392 26.4766C168.282 25.3984 168.361 24.3672 168.626 23.3828C169.126 21.5859 170.157 20.1094 171.72 18.9531C172.111 18.6875 172.509 18.4375 172.915 18.2031C173.337 17.9688 173.775 17.7578 174.228 17.5703C175.134 17.2109 176.087 16.9453 177.087 16.7734C178.103 16.5859 179.126 16.4922 180.157 16.4922C180.767 16.4922 181.486 16.5234 182.314 16.5859C183.142 16.6484 184.009 16.7734 184.915 16.9609C185.822 17.1484 186.736 17.4219 187.657 17.7812C188.579 18.125 189.439 18.5859 190.236 19.1641L188.618 23.4531C187.587 22.9062 186.603 22.4844 185.665 22.1875C184.743 21.875 183.923 21.6328 183.204 21.4609C182.782 21.3672 182.368 21.2891 181.962 21.2266C181.572 21.1641 181.197 21.1172 180.837 21.0859C178.384 20.9453 176.47 21.2031 175.095 21.8594C173.736 22.5156 173.056 23.5078 173.056 24.8359C173.056 25.7734 173.314 26.4609 173.829 26.8984C174.345 27.3203 175.048 27.625 175.939 27.8125C176.454 27.9219 177.111 28.0156 177.907 28.0938C178.72 28.1562 179.564 28.2266 180.439 28.3047C181.329 28.3828 182.134 28.4766 182.853 28.5859C184.384 28.8203 185.673 29.1719 186.72 29.6406C187.767 30.1094 188.611 30.6562 189.251 31.2812C189.892 31.9062 190.353 32.6016 190.634 33.3672C190.915 34.1172 191.056 34.9062 191.056 35.7344Z" fill="white"/>
</svg>
