<svg width="100" height="100" viewBox="0 0 52 52" fill="none" xmlns="http://www.w3.org/2000/svg">
    <rect width="52" height="52" rx="26" fill="#09A24F" fill-opacity="0.62" />
    <path
        d="M35 11H17C14.51 11 12.5 12.995 12.5 15.455V31.82C12.5 34.28 14.51 36.29 17 36.29H18.14C19.325 36.29 20.48 36.755 21.32 37.595L23.885 40.13C25.055 41.285 26.945 41.285 28.115 40.13L30.68 37.595C31.52 36.755 32.675 36.29 33.86 36.29H35C37.49 36.29 39.5 34.28 39.5 31.82V15.455C39.5 12.995 37.49 11 35 11ZM26 16.325C27.62 16.325 28.925 17.645 28.925 19.25C28.925 20.84 27.665 22.115 26.105 22.175C26.045 22.175 25.955 22.175 25.88 22.175C24.305 22.115 23.06 20.84 23.06 19.25C23.075 17.645 24.38 16.325 26 16.325ZM30.125 30.035C27.86 31.55 24.14 31.55 21.875 30.035C19.88 28.715 19.88 26.525 21.875 25.19C24.155 23.675 27.875 23.675 30.125 25.19C32.12 26.525 32.12 28.7 30.125 30.035Z"
        fill="white" />
</svg>