<svg width="242" height="36" viewBox="0 0 242 36" fill="none" xmlns="http://www.w3.org/2000/svg">
<path d="M32.3172 35.3038C32.2212 35.3038 32.1252 35.2878 32.0292 35.2558C31.9332 35.2558 31.8372 35.2398 31.7412 35.2078C30.6212 34.8558 29.8212 34.1678 29.3412 33.1438C28.8612 32.1198 28.6212 30.8878 28.6212 29.4478C28.6212 27.9438 28.8292 26.2798 29.2452 24.4558C29.6612 22.6318 30.2052 20.7758 30.8772 18.8878C31.5492 16.9678 32.2532 15.1438 32.9892 13.4158C33.7572 11.6558 34.4932 10.0878 35.1972 8.7118C35.9012 7.3038 36.4932 6.1998 36.9732 5.3998C36.4612 5.8478 35.6932 6.5838 34.6692 7.6078C33.6452 8.5998 32.5092 9.7838 31.2612 11.1598C30.0132 12.5358 28.8292 14.0078 27.7092 15.5758C26.5892 17.1438 25.6772 18.7278 24.9732 20.3278C24.8132 20.7438 24.5732 21.4318 24.2532 22.3918C23.9332 23.3198 23.6452 24.3278 23.3892 25.4158C23.1652 26.5038 23.0532 27.4638 23.0532 28.2958C23.0532 28.9358 23.1492 29.4318 23.3412 29.7838C23.3412 29.8158 23.3412 29.8478 23.3412 29.8798C23.3732 29.8798 23.3892 29.8958 23.3892 29.9278C23.3892 30.2478 23.0052 30.4078 22.2372 30.4078C20.7652 30.4078 19.7252 29.9758 19.1172 29.1118C18.5412 28.2158 18.2532 27.0798 18.2532 25.7038C18.2532 24.0718 18.5572 22.2318 19.1652 20.1838C19.8052 18.1038 20.5252 16.1198 21.3252 14.2318C21.7732 13.1758 22.2852 12.1038 22.8612 11.0158C23.4372 9.8958 23.9652 8.9038 24.4452 8.0398C24.9572 7.1438 25.3252 6.5198 25.5492 6.1678C24.5252 7.0958 23.3572 8.2478 22.0452 9.6238C20.7652 10.9678 19.4692 12.4718 18.1572 14.1358C16.8452 15.7678 15.6292 17.4638 14.5092 19.2238C13.3892 20.9518 12.4932 22.6798 11.8212 24.4078C11.1492 26.1038 10.8132 27.7038 10.8132 29.2078C10.8132 29.9118 10.9892 30.4718 11.3412 30.8878C11.4052 31.0158 11.4372 31.0798 11.4372 31.0798C11.4372 31.1758 11.2772 31.2238 10.9572 31.2238C9.3892 31.2238 8.2052 30.9518 7.4052 30.4078C6.6372 29.8318 6.2532 28.9038 6.2532 27.6238C6.2532 27.4638 6.2532 27.3038 6.2532 27.1438C6.2852 26.9838 6.3172 26.8078 6.3492 26.6158C6.4452 25.8158 6.6692 24.7598 7.0212 23.4478C7.4052 22.1038 7.9012 20.6158 8.5092 18.9838C9.1492 17.3198 9.8692 15.6238 10.6692 13.8958C11.5012 12.1358 12.3972 10.4558 13.3572 8.8558C13.4532 8.6958 13.6932 8.3278 14.0772 7.7518C14.4932 7.1758 14.8772 6.5678 15.2292 5.9278C15.6132 5.2878 15.8052 4.8238 15.8052 4.5358C15.8052 4.2478 15.6132 4.1838 15.2292 4.3438C14.6852 4.5358 14.0452 4.9518 13.3092 5.5918C12.5732 6.2318 11.7732 6.9678 10.9092 7.7998C10.0452 8.6318 9.1332 9.4478 8.1732 10.2478C7.2452 11.0158 6.2852 11.6718 5.2932 12.2158C4.3332 12.7278 3.3892 12.9838 2.4612 12.9838C2.2372 12.9838 1.9972 12.9678 1.7412 12.9358C1.5172 12.9038 1.2772 12.8398 1.0212 12.7438C0.4772 12.5518 0.2052 12.0718 0.2052 11.3038C0.2052 10.5678 0.4132 9.7038 0.8292 8.7118C1.2772 7.6878 1.8212 6.7118 2.4612 5.7838C2.6212 5.5278 2.8132 5.3518 3.0372 5.2558C3.2612 5.1278 3.4372 5.0638 3.5652 5.0638C3.8212 5.0638 3.9492 5.1758 3.9492 5.3998C3.9492 5.4958 3.9012 5.6238 3.8052 5.7838C3.7732 5.9118 3.7252 6.0238 3.6612 6.1198C3.6292 6.2158 3.6132 6.2958 3.6132 6.3598C3.6132 6.5838 3.7252 6.7438 3.9492 6.8398C4.1732 6.9038 4.4132 6.9358 4.6692 6.9358C5.3412 6.9358 6.2212 6.7118 7.3092 6.2638C8.3972 5.8158 9.5652 5.2718 10.8132 4.6318C12.0932 3.9598 13.3572 3.3038 14.6052 2.6638C15.8852 2.0238 17.0692 1.5278 18.1572 1.1758C19.2452 0.7918 20.1412 0.663799 20.8452 0.7918C21.3892 0.9198 21.8692 1.3038 22.2852 1.9438C22.7332 2.5838 23.0212 3.1438 23.1492 3.6238C23.2132 3.8158 23.1172 4.1358 22.8612 4.5838C22.6052 5.0318 22.2692 5.5278 21.8532 6.0718C21.4692 6.6158 21.0852 7.1278 20.7012 7.6078C20.3172 8.0878 20.0292 8.4558 19.8372 8.7118C19.4212 9.2238 18.9412 9.8478 18.3972 10.5838C17.8532 11.3198 17.3092 12.0558 16.7652 12.7918C16.2532 13.4958 15.8372 14.0878 15.5172 14.5678C15.3252 14.8878 15.2292 15.1598 15.2292 15.3838C15.2612 15.5758 15.3412 15.5918 15.4692 15.4318C16.1732 14.5038 17.0052 13.4478 17.9652 12.2638C18.9572 11.0478 19.9492 9.8478 20.9412 8.6638C21.9652 7.4478 22.8932 6.3918 23.7252 5.4958C24.5892 4.5678 25.2452 3.9438 25.6932 3.6238C25.8532 3.4958 26.1412 3.3358 26.5572 3.1438C27.0052 2.9198 27.5332 2.8078 28.1412 2.8078C28.4932 2.8078 28.8452 2.8558 29.1972 2.9518C29.5492 3.0478 29.9332 3.2238 30.3492 3.4798C31.0212 3.8958 31.3572 4.5038 31.3572 5.3038C31.3572 6.3278 30.8612 7.6398 29.8692 9.2398C28.8772 10.8398 27.7092 12.6798 26.3652 14.7598C27.0052 13.9278 27.7892 12.9678 28.7172 11.8798C29.6772 10.7598 30.6532 9.6078 31.6452 8.4238C32.6692 7.2078 33.6292 6.0878 34.5252 5.0638C35.4532 4.0078 36.2212 3.1438 36.8292 2.4718C37.4692 1.7678 37.8532 1.3678 37.9812 1.2718C38.5252 0.8878 38.9572 0.695801 39.2772 0.695801C39.5332 0.695801 39.8372 0.775801 40.1892 0.935801C40.5412 1.0958 40.9892 1.3198 41.5332 1.6078C42.2372 1.9598 42.7332 2.4078 43.0212 2.9518C43.3092 3.4638 43.4532 4.0398 43.4532 4.6798C43.4532 5.6398 43.2292 6.6318 42.7812 7.6558C42.3332 8.6478 41.9012 9.5278 41.4852 10.2958C41.1652 10.8398 40.6852 11.7678 40.0452 13.0798C39.4372 14.3918 38.7652 15.9118 38.0292 17.6398C37.2932 19.3678 36.5732 21.1598 35.8692 23.0158C35.1972 24.8718 34.6372 26.6478 34.1892 28.3438C33.7412 30.0078 33.5172 31.4318 33.5172 32.6158C33.5172 33.0318 33.5492 33.4158 33.6132 33.7678C33.6772 34.1198 33.7892 34.4238 33.9492 34.6798C33.5332 35.0958 32.9892 35.3038 32.3172 35.3038Z" fill="white"/>
<path d="M44.5452 31.1758C42.9772 31.1758 41.8732 30.8238 41.2332 30.1198C40.6252 29.3838 40.3212 28.4718 40.3212 27.3838C40.3212 26.2318 40.5292 24.9998 40.9452 23.6878C41.3932 22.3438 41.8892 21.1118 42.4332 19.9918C43.0092 18.8398 43.4572 17.9598 43.7772 17.3518C45.0892 14.9198 46.5932 13.1438 48.2892 12.0238C50.0172 10.9038 51.9212 10.3438 54.0012 10.3438C54.7372 10.3438 55.6012 10.3758 56.5932 10.4398C57.5852 10.5038 58.5932 10.5358 59.6172 10.5358C60.1292 10.5358 60.6252 10.5198 61.1052 10.4878C61.5852 10.4558 62.0492 10.4398 62.4972 10.4398H62.6892C63.2332 10.4398 63.5052 10.5358 63.5052 10.7278C63.5052 10.8558 63.3132 10.9998 62.9292 11.1598C62.5132 11.3198 62.0172 11.8638 61.4412 12.7918C60.8652 13.6878 60.2732 14.7758 59.6652 16.0558C59.0572 17.3358 58.4812 18.6318 57.9372 19.9438C57.6492 20.6798 57.2652 21.6718 56.7852 22.9198C56.3052 24.1358 55.9532 25.3838 55.7292 26.6638C55.6972 26.8878 55.6652 27.0958 55.6332 27.2878C55.6332 27.4478 55.6332 27.6078 55.6332 27.7678C55.6332 28.5678 55.8412 28.9678 56.2572 28.9678C56.7692 28.9678 57.2972 28.6958 57.8412 28.1518C58.3852 27.6078 58.9132 26.9518 59.4252 26.1838C59.8732 25.5118 60.3212 24.7598 60.7692 23.9278C61.2172 23.0958 61.6172 22.3278 61.9692 21.6238C62.3212 20.8878 62.5772 20.3758 62.7372 20.0878C62.8332 19.8958 62.9612 19.7998 63.1212 19.7998C63.3132 19.7998 63.4892 19.9438 63.6492 20.2318C63.8092 20.4878 63.8252 20.7438 63.6972 20.9998C63.0892 22.1838 62.4332 23.4478 61.7292 24.7918C61.0252 26.1358 60.2572 27.3518 59.4252 28.4398C58.0172 30.2638 56.3852 31.1758 54.5292 31.1758C53.1212 31.1758 52.0812 30.7438 51.4092 29.8798C50.7692 29.0158 50.4492 27.9758 50.4492 26.7598C50.4492 26.2158 50.4972 25.6878 50.5932 25.1758C50.2412 25.7518 49.8092 26.5038 49.2972 27.4318C48.7852 28.3278 48.1932 29.1438 47.5212 29.8798C46.8812 30.6158 46.1612 31.0318 45.3612 31.1278C45.2332 31.1278 45.1052 31.1278 44.9772 31.1278C44.8492 31.1598 44.7052 31.1758 44.5452 31.1758ZM46.3212 28.7278C46.6412 28.7278 47.0572 28.4398 47.5692 27.8638C48.1132 27.2878 48.6572 26.5678 49.2012 25.7038C49.7772 24.8078 50.2732 23.9118 50.6892 23.0158C50.7852 22.7598 51.0092 22.2158 51.3612 21.3838C51.7452 20.5198 52.1612 19.5278 52.6092 18.4078C53.0892 17.2558 53.5692 16.1038 54.0492 14.9518C54.5292 13.7998 54.9452 12.7918 55.2972 11.9278C55.3292 11.8318 55.3452 11.7198 55.3452 11.5918C55.3452 11.3998 55.2492 11.3038 55.0572 11.3038C54.8652 11.3038 54.6412 11.3838 54.3852 11.5438C54.1292 11.6718 53.8892 11.8158 53.6652 11.9758C53.2492 12.2958 52.7052 12.9678 52.0332 13.9918C51.3932 14.9838 50.7052 16.1518 49.9692 17.4958C49.2652 18.8398 48.5932 20.2158 47.9532 21.6238C47.3132 22.9998 46.7852 24.2638 46.3692 25.4158C45.9852 26.5358 45.7932 27.3838 45.7932 27.9598C45.7932 28.4718 45.9692 28.7278 46.3212 28.7278Z" fill="white"/>
<path d="M82.0741 31.2718C80.4741 31.2718 79.3861 30.8398 78.8101 29.9758C78.2341 29.1118 77.9461 28.1038 77.9461 26.9518C77.9461 26.0878 78.0421 25.2398 78.2341 24.4078C78.4261 23.5438 78.6341 22.7918 78.8581 22.1518C79.0821 21.4798 79.2261 21.0158 79.2901 20.7598C79.6421 19.7038 80.0581 18.6478 80.5381 17.5918C81.0501 16.5358 81.3861 15.6558 81.5461 14.9518C81.1621 15.2718 80.6501 15.8798 80.0101 16.7758C79.3701 17.6398 78.6661 18.6478 77.8981 19.7998C77.1621 20.9518 76.4581 22.1518 75.7861 23.3998C75.1461 24.6158 74.6021 25.7678 74.1541 26.8558C73.7381 27.9438 73.5301 28.8398 73.5301 29.5438C73.5301 29.9918 73.6261 30.3438 73.8181 30.5998C73.5301 30.6958 73.2421 30.7918 72.9541 30.8878C72.6661 30.9518 72.3781 30.9838 72.0901 30.9838C70.9701 30.9838 70.1861 30.6798 69.7381 30.0718C69.3221 29.4638 69.1141 28.7278 69.1141 27.8638C69.1141 26.8078 69.3061 25.6878 69.6901 24.5038C70.1061 23.3198 70.4741 22.3598 70.7941 21.6238C71.0501 21.0478 71.3701 20.2798 71.7541 19.3198C72.1701 18.3598 72.5861 17.4158 73.0021 16.4878C73.4501 15.5278 73.8341 14.7918 74.1541 14.2798C73.8021 14.5998 73.2581 15.2078 72.5221 16.1038C71.8181 16.9998 71.0341 18.0558 70.1701 19.2718C69.3061 20.4878 68.4741 21.7518 67.6741 23.0638C66.8741 24.3438 66.2181 25.5598 65.7061 26.7118C65.1941 27.8638 64.9381 28.8238 64.9381 29.5918C64.9381 30.1038 65.0501 30.4718 65.2741 30.6958C65.3701 30.7918 65.4181 30.8718 65.4181 30.9358C65.4181 31.0958 65.2421 31.1438 64.8901 31.0798C64.1541 30.9518 63.4341 30.8238 62.7301 30.6958C62.0261 30.5358 61.4341 30.2318 60.9541 29.7838C60.5061 29.3038 60.2821 28.5198 60.2821 27.4318C60.2821 26.5678 60.5061 25.5278 60.9541 24.3118C61.4021 23.0638 61.9301 21.7838 62.5381 20.4718C63.1461 19.1598 63.6741 17.9438 64.1221 16.8238C64.2181 16.5678 64.3781 16.1838 64.6021 15.6718C64.8261 15.1278 65.0501 14.5678 65.2741 13.9918C65.5301 13.3838 65.7221 12.8558 65.8501 12.4078C65.9781 11.9278 66.0101 11.6078 65.9461 11.4478C65.8821 11.3198 65.8501 11.2238 65.8501 11.1598C65.8501 10.7758 66.1061 10.5838 66.6181 10.5838C67.1301 10.5838 67.6421 10.6638 68.1541 10.8238C68.6981 10.9518 69.1781 11.1758 69.5941 11.4958C70.0421 11.8158 70.3941 12.1998 70.6501 12.6478C70.9061 13.0958 71.0341 13.5918 71.0341 14.1358C71.0341 14.4878 70.9541 14.9038 70.7941 15.3838C70.6981 15.6718 70.5061 16.0718 70.2181 16.5838C69.9621 17.0638 69.7061 17.5438 69.4501 18.0238C69.2261 18.4718 69.0981 18.7918 69.0661 18.9838C69.5781 18.2478 70.1381 17.4318 70.7461 16.5358C71.3861 15.6398 71.9941 14.7918 72.5701 13.9918C73.1781 13.1598 73.7061 12.4558 74.1541 11.8798C74.6341 11.2718 74.9861 10.8878 75.2101 10.7278C75.5621 10.4718 75.9781 10.3438 76.4581 10.3438C77.1301 10.3438 77.8661 10.5358 78.6661 10.9198C79.2101 11.1438 79.5781 11.4478 79.7701 11.8318C79.9941 12.1838 80.1061 12.5838 80.1061 13.0318C80.1061 13.6718 79.9301 14.3438 79.5781 15.0478C79.2581 15.7198 78.9541 16.3278 78.6661 16.8718C79.3061 15.9758 79.9461 15.0798 80.5861 14.1838C81.2581 13.2878 81.8661 12.4878 82.4101 11.7838C82.9861 11.0798 83.4501 10.5998 83.8021 10.3438C84.0581 10.1518 84.4741 10.0558 85.0501 10.0558C85.7221 10.0558 86.4101 10.2638 87.1141 10.6798C87.8181 11.0958 88.1701 11.8478 88.1701 12.9358C88.1701 13.3518 88.0901 13.8318 87.9301 14.3758C87.7701 14.9198 87.5141 15.5278 87.1621 16.1998C85.7861 18.8238 84.7301 21.1918 83.9941 23.3038C83.2581 25.3838 82.8901 26.9198 82.8901 27.9118C82.8901 28.6158 83.0821 28.9678 83.4661 28.9678C83.9141 28.9678 84.4101 28.6798 84.9541 28.1038C85.5301 27.5278 86.0901 26.8398 86.6341 26.0398C87.3381 25.0158 87.9781 23.9278 88.5541 22.7758C89.1621 21.6238 89.5781 20.8238 89.8021 20.3758C89.8981 20.1838 90.0421 20.0878 90.2341 20.0878C90.4261 20.0878 90.6021 20.1998 90.7621 20.4238C90.9541 20.6158 90.9861 20.8398 90.8581 21.0958C90.6341 21.5438 90.2981 22.1678 89.8501 22.9678C89.4341 23.7358 88.9541 24.5838 88.4101 25.5118C87.8661 26.4078 87.2741 27.2718 86.6341 28.1038C85.9301 28.9998 85.1941 29.7518 84.4261 30.3598C83.6581 30.9678 82.8741 31.2718 82.0741 31.2718Z" fill="white"/>
<path d="M92.0765 31.1758C90.5085 31.1758 89.4044 30.8238 88.7645 30.1198C88.1564 29.3838 87.8524 28.4718 87.8524 27.3838C87.8524 26.2318 88.0604 24.9998 88.4764 23.6878C88.9244 22.3438 89.4204 21.1118 89.9644 19.9918C90.5404 18.8398 90.9884 17.9598 91.3084 17.3518C92.6205 14.9198 94.1245 13.1438 95.8204 12.0238C97.5484 10.9038 99.4524 10.3438 101.532 10.3438C102.268 10.3438 103.132 10.3758 104.124 10.4398C105.116 10.5038 106.124 10.5358 107.148 10.5358C107.66 10.5358 108.156 10.5198 108.636 10.4878C109.116 10.4558 109.58 10.4398 110.028 10.4398H110.22C110.764 10.4398 111.036 10.5358 111.036 10.7278C111.036 10.8558 110.844 10.9998 110.46 11.1598C110.044 11.3198 109.548 11.8638 108.972 12.7918C108.396 13.6878 107.804 14.7758 107.196 16.0558C106.588 17.3358 106.012 18.6318 105.468 19.9438C105.18 20.6798 104.796 21.6718 104.316 22.9198C103.836 24.1358 103.484 25.3838 103.26 26.6638C103.228 26.8878 103.196 27.0958 103.164 27.2878C103.164 27.4478 103.164 27.6078 103.164 27.7678C103.164 28.5678 103.372 28.9678 103.788 28.9678C104.3 28.9678 104.828 28.6958 105.372 28.1518C105.916 27.6078 106.444 26.9518 106.956 26.1838C107.404 25.5118 107.852 24.7598 108.3 23.9278C108.748 23.0958 109.148 22.3278 109.5 21.6238C109.852 20.8878 110.108 20.3758 110.268 20.0878C110.364 19.8958 110.492 19.7998 110.652 19.7998C110.844 19.7998 111.02 19.9438 111.18 20.2318C111.34 20.4878 111.356 20.7438 111.228 20.9998C110.62 22.1838 109.964 23.4478 109.26 24.7918C108.556 26.1358 107.788 27.3518 106.956 28.4398C105.548 30.2638 103.916 31.1758 102.06 31.1758C100.652 31.1758 99.6124 30.7438 98.9405 29.8798C98.3005 29.0158 97.9805 27.9758 97.9805 26.7598C97.9805 26.2158 98.0285 25.6878 98.1245 25.1758C97.7725 25.7518 97.3405 26.5038 96.8285 27.4318C96.3165 28.3278 95.7244 29.1438 95.0525 29.8798C94.4125 30.6158 93.6925 31.0318 92.8924 31.1278C92.7645 31.1278 92.6365 31.1278 92.5085 31.1278C92.3805 31.1598 92.2365 31.1758 92.0765 31.1758ZM93.8524 28.7278C94.1724 28.7278 94.5884 28.4398 95.1004 27.8638C95.6444 27.2878 96.1885 26.5678 96.7325 25.7038C97.3085 24.8078 97.8045 23.9118 98.2205 23.0158C98.3165 22.7598 98.5405 22.2158 98.8924 21.3838C99.2765 20.5198 99.6925 19.5278 100.14 18.4078C100.62 17.2558 101.1 16.1038 101.58 14.9518C102.06 13.7998 102.476 12.7918 102.828 11.9278C102.86 11.8318 102.876 11.7198 102.876 11.5918C102.876 11.3998 102.78 11.3038 102.588 11.3038C102.396 11.3038 102.172 11.3838 101.916 11.5438C101.66 11.6718 101.42 11.8158 101.196 11.9758C100.78 12.2958 100.236 12.9678 99.5645 13.9918C98.9245 14.9838 98.2365 16.1518 97.5005 17.4958C96.7964 18.8398 96.1245 20.2158 95.4845 21.6238C94.8445 22.9998 94.3165 24.2638 93.9005 25.4158C93.5164 26.5358 93.3244 27.3838 93.3244 27.9598C93.3244 28.4718 93.5005 28.7278 93.8524 28.7278Z" fill="white"/>
<path d="M121.8 31.1758C119.88 31.1758 118.472 30.6798 117.576 29.6878C116.712 28.6638 116.28 27.3198 116.28 25.6558C116.28 25.0478 116.328 24.4078 116.424 23.7358C116.52 23.0318 116.68 22.3118 116.904 21.5758C117.256 20.3278 117.768 18.9198 118.44 17.3518C119.112 15.7838 119.896 14.1998 120.792 12.5998C121.688 10.9998 122.648 9.4958 123.672 8.0878C124.696 6.6798 125.736 5.5278 126.792 4.6318C127.752 3.7998 128.792 3.1758 129.912 2.7598C131.064 2.3118 132.152 2.0878 133.176 2.0878C135.032 2.0878 136.344 2.5038 137.112 3.3358C137.912 4.1678 138.312 5.1918 138.312 6.4078C138.312 7.3678 138.104 8.3598 137.688 9.3838C137.272 10.4078 136.696 11.3998 135.96 12.3598C135.256 13.2878 134.44 14.0878 133.512 14.7598C132.584 15.4318 131.592 15.8638 130.536 16.0558C130.408 16.0878 130.248 16.1038 130.056 16.1038C129.832 16.1038 129.72 16.0398 129.72 15.9118C129.72 15.8158 129.784 15.7038 129.912 15.5758C130.04 15.4158 130.168 15.2718 130.296 15.1438C130.552 14.8878 130.952 14.4238 131.496 13.7518C132.072 13.0478 132.664 12.2478 133.272 11.3518C133.88 10.4238 134.376 9.5278 134.76 8.6638C135.336 7.4478 135.624 6.4078 135.624 5.5438C135.624 4.6478 135.32 4.1998 134.712 4.1998C134.264 4.1998 133.656 4.5038 132.888 5.1118C132.152 5.6878 131.272 6.6798 130.248 8.0878C129.48 9.1118 128.744 10.1998 128.04 11.3518C127.368 12.4718 126.776 13.5278 126.264 14.5198C125.752 15.4798 125.352 16.2638 125.064 16.8718C124.456 18.3118 123.912 19.8478 123.432 21.4798C122.952 23.0798 122.712 24.5038 122.712 25.7518C122.712 26.7118 122.888 27.4958 123.24 28.1038C123.592 28.6798 124.2 28.9678 125.064 28.9678C125.96 28.9678 126.872 28.6478 127.8 28.0078C128.728 27.3358 129.608 26.5038 130.44 25.5118C131.304 24.4878 132.088 23.4318 132.792 22.3438C133.528 21.2238 134.136 20.1998 134.616 19.2718C134.84 19.3038 135.16 19.3358 135.576 19.3678C136.024 19.3998 136.248 19.7038 136.248 20.2798C136.248 20.5998 136.152 21.0158 135.96 21.5278C135.768 22.0078 135.432 22.6638 134.952 23.4958C133.928 25.1918 132.552 26.6958 130.824 28.0078C129.096 29.3198 127.352 30.1998 125.592 30.6478C124.888 30.8398 124.216 30.9678 123.576 31.0318C122.936 31.1278 122.344 31.1758 121.8 31.1758Z" fill="white"/>
<path d="M141.27 31.1758C140.822 31.1758 140.39 31.1278 139.974 31.0318C139.59 30.9678 139.126 30.8238 138.582 30.5998C137.878 30.3118 137.366 29.8158 137.046 29.1118C136.726 28.3758 136.566 27.5118 136.566 26.5198C136.566 25.3358 136.758 24.0238 137.142 22.5838C137.558 21.1438 138.086 19.6878 138.726 18.2158C139.462 16.5838 140.294 14.8718 141.222 13.0798C142.182 11.2878 143.222 9.6558 144.342 8.1838C145.494 6.7118 146.694 5.6558 147.942 5.0158C148.294 4.8238 148.694 4.6958 149.142 4.6318C149.59 4.5358 150.038 4.4878 150.486 4.4878C151.35 4.4878 152.166 4.6158 152.934 4.8718C153.222 4.9678 153.366 5.0958 153.366 5.2558C153.366 5.3518 153.27 5.4798 153.078 5.6398C152.854 5.7998 152.134 6.5518 150.918 7.8958C149.734 9.2078 148.406 11.1598 146.934 13.7518C146.774 14.0398 146.55 14.4398 146.262 14.9518C146.006 15.4318 145.734 15.9278 145.446 16.4398C145.19 16.9518 144.966 17.3998 144.774 17.7838C144.582 18.1358 144.486 18.3118 144.486 18.3118C145.318 17.0958 146.182 15.9438 147.078 14.8558C148.006 13.7678 148.838 12.8238 149.574 12.0238C150.31 11.1918 150.822 10.6318 151.11 10.3438C151.366 10.1518 151.782 10.0558 152.358 10.0558C153.03 10.0558 153.718 10.2638 154.422 10.6798C155.126 11.0958 155.478 11.8478 155.478 12.9358C155.478 13.5758 155.302 14.3438 154.95 15.2398C154.598 16.1358 154.198 17.0318 153.75 17.9278C153.302 18.7918 152.934 19.5438 152.646 20.1838C152.582 20.3438 152.406 20.7278 152.118 21.3358C151.83 21.9438 151.526 22.6478 151.206 23.4478C150.886 24.2478 150.598 25.0478 150.342 25.8478C150.118 26.6158 150.006 27.2558 150.006 27.7678C150.006 28.4078 150.214 28.7278 150.63 28.7278C150.918 28.7278 151.27 28.5518 151.686 28.1998C152.102 27.8158 152.486 27.4158 152.838 26.9998C153.222 26.5518 153.494 26.2158 153.654 25.9918C154.326 25.0638 154.934 24.0718 155.478 23.0158C156.054 21.9598 156.518 21.0798 156.87 20.3758C156.998 20.1518 157.158 20.0398 157.35 20.0398C157.574 20.0398 157.766 20.1358 157.926 20.3278C158.086 20.5198 158.102 20.7438 157.974 20.9998C157.462 22.0238 156.822 23.1918 156.054 24.5038C155.318 25.7838 154.534 26.9518 153.702 28.0078C153.062 28.8078 152.326 29.5278 151.494 30.1678C150.662 30.7758 149.782 31.0798 148.854 31.0798C147.51 31.0798 146.566 30.6638 146.022 29.8318C145.51 28.9998 145.254 27.9118 145.254 26.5678C145.254 25.5118 145.398 24.4558 145.686 23.3998C146.006 22.3438 146.358 21.2878 146.742 20.2318C147.158 19.0798 147.558 18.0398 147.942 17.1118C148.358 16.1838 148.678 15.5598 148.902 15.2398C148.23 15.7198 147.462 16.4718 146.598 17.4958C145.766 18.4878 144.966 19.6398 144.198 20.9518C143.43 22.2638 142.79 23.5918 142.278 24.9358C141.766 26.2798 141.51 27.5278 141.51 28.6798C141.51 29.4798 141.686 30.0878 142.038 30.5038C142.134 30.5998 142.182 30.6958 142.182 30.7918C142.182 31.0478 141.878 31.1758 141.27 31.1758Z" fill="white"/>
<path d="M159.828 31.2718C158.676 31.2718 157.636 30.9518 156.708 30.3118C155.78 29.6398 155.316 28.5518 155.316 27.0478C155.316 26.0558 155.476 24.9038 155.796 23.5918C156.148 22.2798 156.58 20.9358 157.092 19.5598C157.604 18.1518 158.132 16.8558 158.676 15.6718C159.252 14.4558 159.764 13.4638 160.212 12.6958C160.916 11.5758 161.7 10.8878 162.564 10.6318C163.46 10.3758 164.548 10.2478 165.828 10.2478C166.756 10.2478 167.524 10.3598 168.132 10.5838C168.74 10.7758 168.836 10.9998 168.42 11.2558C167.812 11.6718 167.028 12.5998 166.068 14.0398C165.108 15.4798 164.18 17.0958 163.284 18.8878C163.028 19.3998 162.708 20.0878 162.324 20.9518C161.94 21.7838 161.556 22.6798 161.172 23.6398C160.82 24.5678 160.516 25.4638 160.26 26.3278C160.004 27.1598 159.876 27.8478 159.876 28.3918C159.876 29.1918 160.244 29.5918 160.98 29.5918C161.748 29.5918 162.612 29.2238 163.572 28.4878C164.02 28.1358 164.436 27.7358 164.82 27.2878C165.204 26.8398 165.556 26.3918 165.876 25.9438C166.516 25.0798 167.092 24.1518 167.604 23.1598C168.148 22.1358 168.644 21.1758 169.092 20.2798C169.188 20.0878 169.316 19.9918 169.476 19.9918C169.7 19.9918 169.892 20.1038 170.052 20.3278C170.212 20.5518 170.228 20.7918 170.1 21.0478C169.62 22.0078 169.028 23.1438 168.324 24.4558C167.62 25.7358 166.804 26.9198 165.876 28.0078C165.076 28.9358 164.164 29.7198 163.14 30.3598C162.148 30.9678 161.044 31.2718 159.828 31.2718ZM166.692 7.8478C166.148 7.8478 165.716 7.6718 165.396 7.3198C165.076 6.9358 164.916 6.4398 164.916 5.8318C164.916 5.0958 165.108 4.4238 165.492 3.8158C165.876 3.2078 166.356 2.7118 166.932 2.3278C167.508 1.9438 168.1 1.7518 168.708 1.7518C169.252 1.7518 169.684 1.9438 170.004 2.3278C170.324 2.6798 170.484 3.1278 170.484 3.6718C170.484 4.3758 170.292 5.0478 169.908 5.6878C169.524 6.3278 169.044 6.8558 168.468 7.2718C167.892 7.6558 167.3 7.8478 166.692 7.8478Z" fill="white"/>
<path d="M180.703 31.2238C180.031 31.2238 179.439 31.0958 178.927 30.8398C178.127 30.4558 177.519 29.7838 177.103 28.8238C176.719 27.8638 176.575 26.8238 176.671 25.7038L176.191 26.6158C175.711 27.5438 175.039 28.4878 174.175 29.4478C173.375 30.3438 172.655 30.8558 172.015 30.9838C171.375 31.1118 170.799 31.1598 170.287 31.1278C169.167 31.0318 168.351 30.5038 167.839 29.5438C167.327 28.5518 167.071 27.4158 167.071 26.1358C167.071 24.6958 167.311 23.2878 167.791 21.9118C168.303 20.5038 168.943 19.0478 169.711 17.5438C171.279 14.5998 172.879 12.6158 174.511 11.5918C176.143 10.5358 177.823 10.0558 179.551 10.1518C179.903 10.1838 180.367 10.2638 180.943 10.3918C181.519 10.4878 182.031 10.5998 182.479 10.7278C183.055 9.7998 183.695 8.8878 184.399 7.9918C185.103 7.0958 185.839 6.3278 186.607 5.6878C187.407 5.0478 188.207 4.6638 189.007 4.5358C189.551 4.4398 190.079 4.3918 190.591 4.3918C191.423 4.3918 192.047 4.4718 192.463 4.6318C193.199 4.9198 193.567 5.2078 193.567 5.4958C193.567 5.6878 193.407 5.7838 193.087 5.7838C192.959 5.7838 192.783 5.8638 192.559 6.0238C192.335 6.1518 192.127 6.3118 191.935 6.5038C191.071 7.3678 190.095 8.5838 189.007 10.1518C187.919 11.7198 186.863 13.4638 185.839 15.3838C184.815 17.3038 183.919 19.2398 183.151 21.1918C182.831 22.0238 182.527 23.0318 182.239 24.2158C181.951 25.3998 181.807 26.4238 181.807 27.2878C181.807 27.7998 181.871 28.2158 181.999 28.5358C182.127 28.8238 182.335 28.9678 182.623 28.9678C183.071 28.9678 183.567 28.6798 184.111 28.1038C184.655 27.4958 185.199 26.7918 185.743 25.9918C186.479 24.9678 187.103 23.9278 187.615 22.8718C188.159 21.8158 188.575 21.0158 188.863 20.4718C188.927 20.2798 189.087 20.1838 189.343 20.1838C189.567 20.1838 189.759 20.2798 189.919 20.4718C190.079 20.6638 190.079 20.8878 189.919 21.1438C189.311 22.3278 188.671 23.5598 187.999 24.8398C187.327 26.0878 186.575 27.2558 185.743 28.3438C185.167 29.1118 184.431 29.7838 183.535 30.3598C182.639 30.9358 181.695 31.2238 180.703 31.2238ZM172.735 28.8238C173.087 28.8238 173.567 28.4238 174.175 27.6238C174.815 26.7918 175.375 25.8798 175.855 24.8878C175.951 24.6958 176.143 24.2638 176.431 23.5918C176.751 22.8878 177.119 22.0398 177.535 21.0478C177.983 20.0558 178.431 19.0158 178.879 17.9278C179.359 16.8398 179.807 15.7998 180.223 14.8078C180.639 13.8158 180.975 12.9838 181.231 12.3118C181.263 12.2478 181.279 12.1518 181.279 12.0238C181.279 11.7358 181.071 11.5918 180.655 11.5918C180.431 11.5918 180.175 11.6398 179.887 11.7358C179.631 11.8318 179.407 11.9598 179.215 12.1198C178.703 12.5358 178.063 13.3198 177.295 14.4718C176.527 15.6238 175.759 16.9838 174.991 18.5518C174.223 20.0878 173.583 21.6718 173.071 23.3038C172.559 24.9038 172.303 26.3758 172.303 27.7198C172.303 28.4558 172.447 28.8238 172.735 28.8238Z" fill="white"/>
<path d="M194.338 31.6078C192.002 31.6078 190.306 31.0798 189.25 30.0238C188.226 28.9678 187.714 27.5758 187.714 25.8478C187.714 24.5358 187.986 23.0958 188.53 21.5278C188.946 20.2478 189.506 18.9518 190.21 17.6398C190.914 16.2958 191.73 15.0638 192.658 13.9438C193.586 12.7918 194.61 11.8798 195.73 11.2078C196.85 10.5038 198.034 10.1518 199.282 10.1518C200.882 10.1518 202.178 10.4078 203.17 10.9198C204.194 11.3998 204.706 12.1998 204.706 13.3198C204.706 14.1518 204.37 15.1918 203.698 16.4398C202.802 18.1678 201.49 19.5918 199.762 20.7118C198.034 21.8318 196.098 22.4718 193.954 22.6318C193.474 23.9438 193.186 25.0158 193.09 25.8478C193.058 26.0078 193.042 26.1678 193.042 26.3278C193.042 26.4558 193.042 26.5998 193.042 26.7598C193.042 27.8158 193.282 28.5838 193.762 29.0638C194.242 29.5118 194.834 29.7358 195.538 29.7358C196.85 29.7358 198.002 29.3998 198.994 28.7278C199.986 28.0558 200.85 27.2078 201.586 26.1838C202.354 25.1598 203.01 24.1358 203.554 23.1118C203.874 22.5358 204.146 22.0078 204.37 21.5278C204.594 21.0158 204.77 20.6478 204.898 20.4238C205.058 20.1678 205.234 20.0398 205.426 20.0398C205.618 20.0398 205.794 20.1518 205.954 20.3758C206.114 20.5678 206.13 20.7918 206.002 21.0478C205.586 21.8798 205.01 22.9838 204.274 24.3598C203.538 25.7358 202.706 26.9518 201.778 28.0078C200.754 29.2238 199.65 30.1358 198.466 30.7438C197.314 31.3198 195.938 31.6078 194.338 31.6078ZM194.578 21.2398C196.018 20.6958 197.282 19.7198 198.37 18.3118C199.49 16.9038 200.242 15.3518 200.626 13.6558C200.658 13.4958 200.674 13.3518 200.674 13.2238C200.706 13.0958 200.722 12.9678 200.722 12.8398C200.722 12.1998 200.53 11.8798 200.146 11.8798C199.826 11.8798 199.49 12.1038 199.138 12.5518C198.626 13.1598 198.082 13.9918 197.506 15.0478C196.93 16.0718 196.418 17.0798 195.97 18.0718C195.522 19.0638 195.186 19.8158 194.962 20.3278L194.578 21.2398Z" fill="white"/>
<path d="M212.001 31.2718C210.401 31.2718 209.265 30.8238 208.593 29.9278C207.953 28.9998 207.633 27.9438 207.633 26.7598C207.633 25.7038 207.857 24.5358 208.305 23.2558C208.753 21.9438 209.297 20.6318 209.937 19.3198C210.609 17.9758 211.297 16.6958 212.001 15.4798C212.705 14.2638 213.313 13.1758 213.825 12.2158C213.505 12.2798 213.169 12.3438 212.817 12.4078C212.497 12.4398 212.177 12.4558 211.857 12.4558C211.121 12.4558 210.481 12.3438 209.937 12.1198C209.905 12.2478 209.857 12.3758 209.793 12.5038C209.729 12.6318 209.681 12.7278 209.649 12.7918C208.945 14.6478 208.193 16.4558 207.393 18.2158C206.593 19.9758 205.873 21.4158 205.233 22.5358C204.817 23.2718 204.449 23.6398 204.129 23.6398C203.873 23.6398 203.745 23.4478 203.745 23.0638C203.745 22.8078 203.809 22.5678 203.937 22.3438C204.577 21.1278 205.313 19.5918 206.145 17.7358C207.009 15.8798 207.793 13.9918 208.497 12.0718C208.529 12.0078 208.561 11.8958 208.593 11.7358C208.657 11.5438 208.705 11.3838 208.737 11.2558C208.321 10.7438 208.113 10.0718 208.113 9.2398C208.113 8.6958 208.257 8.1678 208.545 7.6558C208.833 7.1118 209.281 6.8398 209.889 6.8398C210.241 6.8398 210.561 6.9678 210.849 7.2238C211.169 7.4798 211.329 7.8798 211.329 8.4238C211.329 9.0638 211.105 9.7678 210.657 10.5358C210.721 10.7598 210.929 10.9358 211.281 11.0638C211.633 11.1598 212.017 11.2078 212.433 11.2078C212.881 11.2078 213.313 11.1438 213.729 11.0158C214.177 10.8878 214.481 10.6958 214.641 10.4398C214.929 10.0558 215.409 9.8638 216.081 9.8638C216.657 9.8638 217.297 10.0238 218.001 10.3438C218.385 10.5358 218.705 10.8238 218.961 11.2078C219.217 11.5598 219.345 12.0078 219.345 12.5518C219.345 13.5118 218.929 14.7278 218.097 16.1998C217.201 17.8638 216.273 19.6558 215.313 21.5758C214.385 23.4958 213.697 25.2238 213.249 26.7598C213.121 27.1758 213.057 27.5758 213.057 27.9598C213.057 28.6318 213.265 28.9678 213.681 28.9678C214.129 28.9678 214.625 28.6798 215.169 28.1038C215.745 27.5278 216.305 26.8398 216.849 26.0398C217.553 25.0158 218.193 23.9278 218.769 22.7758C219.377 21.6238 219.793 20.8238 220.017 20.3758C220.113 20.1838 220.257 20.0878 220.449 20.0878C220.641 20.0878 220.817 20.1998 220.977 20.4238C221.169 20.6158 221.201 20.8398 221.073 21.0958C220.657 21.9598 220.081 23.0798 219.345 24.4558C218.609 25.7998 217.777 27.0638 216.849 28.2478C216.177 29.1118 215.441 29.8318 214.641 30.4078C213.841 30.9838 212.961 31.2718 212.001 31.2718Z" fill="white"/>
<path d="M222.295 31.1758C220.727 31.1758 219.623 30.8238 218.983 30.1198C218.375 29.3838 218.071 28.4718 218.071 27.3838C218.071 26.2318 218.279 24.9998 218.695 23.6878C219.143 22.3438 219.639 21.1118 220.183 19.9918C220.759 18.8398 221.207 17.9598 221.527 17.3518C222.839 14.9198 224.343 13.1438 226.039 12.0238C227.767 10.9038 229.671 10.3438 231.751 10.3438C232.487 10.3438 233.351 10.3758 234.343 10.4398C235.335 10.5038 236.343 10.5358 237.367 10.5358C237.879 10.5358 238.375 10.5198 238.855 10.4878C239.335 10.4558 239.799 10.4398 240.247 10.4398H240.439C240.983 10.4398 241.255 10.5358 241.255 10.7278C241.255 10.8558 241.063 10.9998 240.679 11.1598C240.263 11.3198 239.767 11.8638 239.191 12.7918C238.615 13.6878 238.023 14.7758 237.415 16.0558C236.807 17.3358 236.231 18.6318 235.687 19.9438C235.399 20.6798 235.015 21.6718 234.535 22.9198C234.055 24.1358 233.703 25.3838 233.479 26.6638C233.447 26.8878 233.415 27.0958 233.383 27.2878C233.383 27.4478 233.383 27.6078 233.383 27.7678C233.383 28.5678 233.591 28.9678 234.007 28.9678C234.519 28.9678 235.047 28.6958 235.591 28.1518C236.135 27.6078 236.663 26.9518 237.175 26.1838C237.623 25.5118 238.071 24.7598 238.519 23.9278C238.967 23.0958 239.367 22.3278 239.719 21.6238C240.071 20.8878 240.327 20.3758 240.487 20.0878C240.583 19.8958 240.711 19.7998 240.871 19.7998C241.063 19.7998 241.239 19.9438 241.399 20.2318C241.559 20.4878 241.575 20.7438 241.447 20.9998C240.839 22.1838 240.183 23.4478 239.479 24.7918C238.775 26.1358 238.007 27.3518 237.175 28.4398C235.767 30.2638 234.135 31.1758 232.279 31.1758C230.871 31.1758 229.831 30.7438 229.159 29.8798C228.519 29.0158 228.199 27.9758 228.199 26.7598C228.199 26.2158 228.247 25.6878 228.343 25.1758C227.991 25.7518 227.559 26.5038 227.047 27.4318C226.535 28.3278 225.943 29.1438 225.271 29.8798C224.631 30.6158 223.911 31.0318 223.111 31.1278C222.983 31.1278 222.855 31.1278 222.727 31.1278C222.599 31.1598 222.455 31.1758 222.295 31.1758ZM224.071 28.7278C224.391 28.7278 224.807 28.4398 225.319 27.8638C225.863 27.2878 226.407 26.5678 226.951 25.7038C227.527 24.8078 228.023 23.9118 228.439 23.0158C228.535 22.7598 228.759 22.2158 229.111 21.3838C229.495 20.5198 229.911 19.5278 230.359 18.4078C230.839 17.2558 231.319 16.1038 231.799 14.9518C232.279 13.7998 232.695 12.7918 233.047 11.9278C233.079 11.8318 233.095 11.7198 233.095 11.5918C233.095 11.3998 232.999 11.3038 232.807 11.3038C232.615 11.3038 232.391 11.3838 232.135 11.5438C231.879 11.6718 231.639 11.8158 231.415 11.9758C230.999 12.2958 230.455 12.9678 229.783 13.9918C229.143 14.9838 228.455 16.1518 227.719 17.4958C227.015 18.8398 226.343 20.2158 225.703 21.6238C225.063 22.9998 224.535 24.2638 224.119 25.4158C223.735 26.5358 223.543 27.3838 223.543 27.9598C223.543 28.4718 223.719 28.7278 224.071 28.7278Z" fill="white"/>
</svg>
