<svg width="1000" height="1000" viewBox="0 0 517 342" fill="none" xmlns="http://www.w3.org/2000/svg">
<path fill-rule="evenodd" clip-rule="evenodd" d="M135.919 326.224L254.874 339.915C261.808 340.713 268.075 335.744 268.873 328.817L277.623 252.788C278.42 245.862 273.447 239.601 266.513 238.808C263.42 238.454 260.098 238.075 256.582 237.673C201.2 231.345 97.8538 219.537 89.7029 217.28C84.5183 215.844 80.8767 209.942 78.7903 204.326C76.6041 198.441 81.4455 194.18 87.6907 194.867L269.924 214.9C276.601 215.634 282.73 211.016 283.458 204.345C287.944 163.217 279.115 132.832 269.736 110.093C262.42 92.3524 243.161 76.5169 230.24 69.2264C227.462 67.6591 225.178 65.3116 224.2 62.2781C224.148 62.1179 224.096 61.9562 224.044 61.7929C221.654 54.3739 218.258 43.8291 207.931 33.841C194.416 20.7689 177.102 8.92211 141.906 19.4933C122.57 25.3012 111.309 42.5784 106.911 55.2045C105.07 60.4922 101.006 65.1273 95.6486 66.7713C45.052 82.2985 24.6244 128.845 20.6997 151.353C14.0074 174.666 7.52656 231.252 35.1411 271.095C62.7556 310.939 113.832 324.449 135.919 326.224ZM227.152 183.525L89.6138 168.33C86.6946 168.007 85.0226 164.898 86.6532 162.458C97.1266 146.787 123.133 123.99 165.147 128.122C207.486 132.286 226.007 160.835 231.416 178.695C232.23 181.382 229.944 183.834 227.152 183.525ZM129.962 45.1912L202.301 53.1833C205.094 53.4918 207.353 51.0352 206.345 48.4153C202.485 38.3816 191.913 24.4389 169.843 22.2684C148.054 20.1255 133.914 30.8503 127.214 39.4494C125.41 41.7644 127.043 44.8687 129.962 45.1912Z" fill="#04528B" fill-opacity="0.06"/>
<path fill-rule="evenodd" clip-rule="evenodd" d="M428.431 171.315L490.815 178.699C494.451 179.129 497.748 176.533 498.178 172.901L502.897 133.028C503.327 129.396 500.729 126.103 497.092 125.675C495.47 125.484 493.728 125.279 491.884 125.063C462.84 121.649 408.641 115.28 404.369 114.082C401.651 113.32 399.751 110.217 398.666 107.267C397.529 104.176 400.076 101.949 403.351 102.32L498.922 113.138C502.424 113.535 505.647 111.122 506.04 107.623C508.463 86.0543 503.883 70.0982 499.001 58.1527C495.193 48.8333 485.116 40.493 478.349 36.6463C476.894 35.8193 475.7 34.5839 475.192 32.9908C475.165 32.9067 475.138 32.8217 475.111 32.736C473.87 28.8397 472.106 23.3019 466.705 18.0443C459.637 11.1635 450.574 4.919 432.091 10.4054C421.937 13.4197 416 22.4648 413.671 29.0813C412.696 31.8523 410.556 34.2772 407.743 35.1306C381.172 43.191 370.376 67.5762 368.279 79.378C364.729 91.5971 361.233 121.273 375.653 142.223C390.073 163.172 416.847 170.347 428.431 171.315ZM476.536 96.6055L404.405 88.4009C402.874 88.2268 402.002 86.5926 402.862 85.3153C408.383 77.1117 422.065 65.1955 444.1 67.4344C466.305 69.6905 475.973 84.6997 478.781 94.0788C479.203 95.4896 478 96.7721 476.536 96.6055ZM425.781 23.8671L463.719 28.1824C465.183 28.3489 466.373 27.0639 465.849 25.6878C463.84 20.4173 458.318 13.0846 446.743 11.9086C435.315 10.7475 427.879 16.3501 424.349 20.8501C423.399 22.0616 424.25 23.693 425.781 23.8671Z" fill="#04528B" fill-opacity="0.06"/>
</svg>
