<svg width="1920" height="914" viewBox="0 0 1920 914" fill="none" xmlns="http://www.w3.org/2000/svg">
<rect width="1920" height="914" fill="white"/>
<path fill-rule="evenodd" clip-rule="evenodd" d="M191.978 487.171L249.378 461.645C252.724 460.157 254.231 456.241 252.745 452.899L236.43 416.213C234.944 412.87 231.027 411.367 227.683 412.857C226.191 413.522 224.589 414.236 222.893 414.992C196.182 426.897 146.337 449.112 142.052 450.266C139.327 450.999 136.108 449.303 133.668 447.322C131.111 445.245 132.163 442.029 135.168 440.675L222.851 401.145C226.064 399.697 227.602 395.976 226.152 392.768C217.215 372.988 205.125 361.612 194.825 353.838C186.79 347.772 173.866 345.751 166.084 345.902C164.411 345.934 162.754 345.482 161.503 344.372C161.437 344.314 161.37 344.255 161.303 344.195C158.245 341.48 153.9 337.62 146.571 335.86C136.979 333.557 125.998 332.819 112.913 346.979C105.724 354.758 105.241 365.567 106.62 372.444C107.198 375.324 106.597 378.502 104.615 380.673C85.8921 401.178 89.0707 427.656 93.2978 438.872C96.4887 451.19 108.646 478.486 131.745 489.128C154.845 499.769 181.525 492.257 191.978 487.171ZM195.16 398.371L128.962 428.171C127.557 428.804 125.973 427.844 126.059 426.307C126.614 416.434 132.288 399.2 152.373 389.867C172.614 380.461 188.593 388.424 195.799 395.052C196.883 396.049 196.504 397.766 195.16 398.371ZM114.366 361.775L149.183 346.101C150.527 345.496 150.893 343.783 149.74 342.868C145.32 339.364 136.826 335.882 126.276 340.785C115.859 345.625 112.329 354.241 111.594 359.913C111.396 361.44 112.961 362.407 114.366 361.775Z" fill="#04528B"/>
<path fill-rule="evenodd" clip-rule="evenodd" d="M444.942 635.224L563.897 648.915C570.831 649.713 577.098 644.744 577.896 637.817L586.646 561.788C587.443 554.862 582.47 548.601 575.536 547.808C572.443 547.454 569.121 547.075 565.605 546.673C510.223 540.345 406.877 528.537 398.726 526.28C393.541 524.844 389.9 518.942 387.813 513.326C385.627 507.441 390.468 503.18 396.714 503.867L578.947 523.9C585.624 524.634 591.753 520.016 592.481 513.345C596.967 472.217 588.138 441.832 578.759 419.093C571.443 401.352 552.184 385.517 539.263 378.226C536.485 376.659 534.201 374.312 533.223 371.278C533.171 371.118 533.119 370.956 533.066 370.793C530.677 363.374 527.281 352.829 516.954 342.841C503.439 329.769 486.125 317.922 450.929 328.493C431.593 334.301 420.332 351.578 415.934 364.204C414.093 369.492 410.029 374.127 404.672 375.771C354.075 391.298 333.647 437.845 329.723 460.353C323.03 483.666 316.55 540.252 344.164 580.095C371.779 619.939 422.855 633.449 444.942 635.224ZM536.174 492.525L398.637 477.33C395.718 477.007 394.046 473.898 395.676 471.458C406.15 455.787 432.156 432.99 474.17 437.122C516.509 441.286 535.029 469.835 540.439 487.695C541.253 490.382 538.967 492.834 536.174 492.525ZM438.985 354.191L511.324 362.183C514.117 362.492 516.376 360.035 515.368 357.415C511.508 347.382 500.936 333.439 478.866 331.268C457.077 329.125 442.937 339.85 436.237 348.449C434.433 350.764 436.066 353.869 438.985 354.191Z" fill="#04528B"/>
<path fill-rule="evenodd" clip-rule="evenodd" d="M1441.92 635.224L1560.87 648.915C1567.81 649.713 1574.08 644.744 1574.87 637.817L1583.62 561.788C1584.42 554.862 1579.45 548.601 1572.51 547.808C1569.42 547.454 1566.1 547.075 1562.58 546.673C1507.2 540.345 1403.85 528.537 1395.7 526.28C1390.52 524.844 1386.88 518.942 1384.79 513.326C1382.6 507.441 1387.45 503.18 1393.69 503.867L1575.92 523.9C1582.6 524.634 1588.73 520.016 1589.46 513.345C1593.94 472.217 1585.11 441.832 1575.74 419.093C1568.42 401.352 1549.16 385.517 1536.24 378.226C1533.46 376.659 1531.18 374.312 1530.2 371.278C1530.15 371.118 1530.1 370.956 1530.04 370.793C1527.65 363.374 1524.26 352.829 1513.93 342.841C1500.42 329.769 1483.1 317.922 1447.91 328.493C1428.57 334.301 1417.31 351.578 1412.91 364.204C1411.07 369.492 1407.01 374.127 1401.65 375.771C1351.05 391.298 1330.62 437.845 1326.7 460.353C1320.01 483.666 1313.53 540.252 1341.14 580.095C1368.76 619.939 1419.83 633.449 1441.92 635.224ZM1533.15 492.525L1395.61 477.33C1392.69 477.007 1391.02 473.898 1392.65 471.458C1403.13 455.787 1429.13 432.99 1471.15 437.122C1513.49 441.286 1532.01 469.835 1537.42 487.695C1538.23 490.382 1535.94 492.834 1533.15 492.525ZM1435.96 354.191L1508.3 362.183C1511.09 362.492 1513.35 360.035 1512.35 357.415C1508.48 347.382 1497.91 333.439 1475.84 331.268C1454.05 329.125 1439.91 339.85 1433.21 348.449C1431.41 350.764 1433.04 353.869 1435.96 354.191Z" fill="#04528B"/>
<path fill-rule="evenodd" clip-rule="evenodd" d="M1795.42 487.171L1852.82 461.645C1856.16 460.157 1857.67 456.241 1856.18 452.899L1839.87 416.213C1838.38 412.87 1834.46 411.367 1831.12 412.857C1829.63 413.522 1828.03 414.236 1826.33 414.992C1799.62 426.897 1749.77 449.112 1745.49 450.266C1742.76 450.999 1739.55 449.303 1737.11 447.322C1734.55 445.245 1735.6 442.029 1738.61 440.675L1826.29 401.145C1829.5 399.697 1831.04 395.976 1829.59 392.768C1820.65 372.988 1808.56 361.612 1798.26 353.838C1790.23 347.772 1777.3 345.751 1769.52 345.902C1767.85 345.934 1766.19 345.482 1764.94 344.372C1764.87 344.314 1764.81 344.255 1764.74 344.195C1761.68 341.48 1757.34 337.62 1750.01 335.86C1740.42 333.557 1729.44 332.819 1716.35 346.979C1709.16 354.758 1708.68 365.567 1710.06 372.444C1710.64 375.324 1710.03 378.502 1708.05 380.673C1689.33 401.178 1692.51 427.656 1696.74 438.872C1699.93 451.19 1712.08 478.486 1735.18 489.128C1758.28 499.769 1784.96 492.257 1795.42 487.171ZM1798.6 398.371L1732.4 428.171C1730.99 428.804 1729.41 427.844 1729.5 426.307C1730.05 416.434 1735.73 399.2 1755.81 389.867C1776.05 380.461 1792.03 388.424 1799.24 395.052C1800.32 396.049 1799.94 397.766 1798.6 398.371ZM1717.8 361.775L1752.62 346.101C1753.96 345.496 1754.33 343.783 1753.18 342.868C1748.76 339.364 1740.26 335.882 1729.71 340.785C1719.3 345.625 1715.77 354.241 1715.03 359.913C1714.83 361.44 1716.4 362.407 1717.8 361.775Z" fill="#04528B"/>
</svg>
