<svg width="22" height="22" viewBox="0 0 22 22" fill="none" xmlns="http://www.w3.org/2000/svg">
<path d="M19.525 6.94837H14.41C14.0525 6.94837 13.7683 6.66421 13.7683 6.30671C13.7683 5.94921 14.0525 5.66504 14.41 5.66504H19.525C19.8825 5.66504 20.1667 5.94921 20.1667 6.30671C20.1667 6.66421 19.8825 6.94837 19.525 6.94837Z" fill="#292D32"/>
<path d="M5.885 6.94837H2.475C2.1175 6.94837 1.83334 6.66421 1.83334 6.30671C1.83334 5.94921 2.1175 5.66504 2.475 5.66504H5.885C6.2425 5.66504 6.52667 5.94921 6.52667 6.30671C6.52667 6.66421 6.23334 6.94837 5.885 6.94837Z" fill="#292D32"/>
<path d="M9.295 9.92746C11.2947 9.92746 12.9158 8.30636 12.9158 6.30662C12.9158 4.30689 11.2947 2.68579 9.295 2.68579C7.29527 2.68579 5.67416 4.30689 5.67416 6.30662C5.67416 8.30636 7.29527 9.92746 9.295 9.92746Z" fill="#292D32"/>
<path d="M19.525 16.3258H16.115C15.7575 16.3258 15.4733 16.0416 15.4733 15.6841C15.4733 15.3266 15.7575 15.0425 16.115 15.0425H19.525C19.8825 15.0425 20.1667 15.3266 20.1667 15.6841C20.1667 16.0416 19.8825 16.3258 19.525 16.3258Z" fill="#292D32"/>
<path d="M7.59 16.3258H2.475C2.1175 16.3258 1.83334 16.0416 1.83334 15.6841C1.83334 15.3266 2.1175 15.0425 2.475 15.0425H7.59C7.9475 15.0425 8.23167 15.3266 8.23167 15.6841C8.23167 16.0416 7.93834 16.3258 7.59 16.3258Z" fill="#292D32"/>
<path d="M12.705 19.3142C14.7047 19.3142 16.3258 17.6931 16.3258 15.6933C16.3258 13.6936 14.7047 12.0725 12.705 12.0725C10.7053 12.0725 9.08417 13.6936 9.08417 15.6933C9.08417 17.6931 10.7053 19.3142 12.705 19.3142Z" fill="#292D32"/>
</svg>
