<svg width="553" height="342" viewBox="0 0 553 342" fill="none" xmlns="http://www.w3.org/2000/svg">
<path fill-rule="evenodd" clip-rule="evenodd" d="M70.9932 171.315L133.377 178.699C137.014 179.129 140.31 176.533 140.74 172.901L145.46 133.028C145.889 129.396 143.291 126.103 139.655 125.675C138.033 125.484 136.29 125.279 134.447 125.063C105.403 121.649 51.2038 115.28 46.9314 114.082C44.2139 113.32 42.3134 110.217 41.2283 107.267C40.0913 104.176 42.6384 101.949 45.9137 102.32L141.485 113.138C144.986 113.535 148.21 111.122 148.603 107.623C151.026 86.0542 146.445 70.0982 141.564 58.1527C137.755 48.8333 127.678 40.493 120.912 36.6463C119.457 35.8193 118.263 34.5839 117.755 32.9908C117.728 32.9067 117.701 32.8217 117.673 32.736C116.433 28.8397 114.669 23.3019 109.268 18.0443C102.199 11.1635 93.1362 4.919 74.6535 10.4054C64.4991 13.4197 58.5621 22.4648 56.2338 29.0813C55.2587 31.8523 53.1187 34.2772 50.3053 35.1306C23.7346 43.191 12.939 67.5762 10.8418 79.378C7.29145 91.5971 3.79567 121.273 18.2157 142.223C32.6356 163.172 59.409 170.347 70.9932 171.315ZM119.098 96.6055L46.9675 88.4009C45.4365 88.2268 44.5646 86.5926 45.4242 85.3153C50.9454 77.1117 64.6278 65.1955 86.6626 67.4344C108.868 69.6905 118.536 84.6997 121.344 94.0788C121.766 95.4896 120.563 96.7721 119.098 96.6055ZM68.3436 23.8671L106.281 28.1824C107.746 28.3489 108.935 27.0639 108.411 25.6878C106.403 20.4173 100.88 13.0846 89.3052 11.9086C77.8777 10.7475 70.4412 16.3501 66.9117 20.8501C65.9615 22.0616 66.8126 23.693 68.3436 23.8671Z" fill="#04528B" fill-opacity="0.06"/>
<path fill-rule="evenodd" clip-rule="evenodd" d="M384.749 326.224L503.704 339.915C510.638 340.713 516.906 335.744 517.703 328.817L526.453 252.788C527.25 245.862 522.277 239.601 515.343 238.808C512.251 238.454 508.929 238.075 505.413 237.673C450.031 231.345 346.684 219.537 338.534 217.28C333.349 215.844 329.707 209.942 327.621 204.326C325.435 198.441 330.276 194.18 336.521 194.867L518.754 214.9C525.432 215.634 531.561 211.016 532.288 204.345C536.775 163.217 527.945 132.832 518.567 110.093C511.251 92.3524 491.992 76.5169 479.07 69.2264C476.293 67.6591 474.009 65.3116 473.031 62.2781C472.979 62.1179 472.927 61.9562 472.874 61.7929C470.485 54.3739 467.089 43.8291 456.762 33.841C443.246 20.7689 425.933 8.92211 390.737 19.4933C371.4 25.3012 360.139 42.5784 355.742 55.2045C353.901 60.4922 349.836 65.1273 344.479 66.7713C293.883 82.2985 273.455 128.845 269.53 151.353C262.838 174.666 256.357 231.252 283.972 271.095C311.586 310.939 362.663 324.449 384.749 326.224ZM475.982 183.525L338.444 168.33C335.525 168.007 333.853 164.898 335.484 162.458C345.957 146.787 371.964 123.99 413.978 128.122C456.317 132.286 474.837 160.835 480.247 178.695C481.06 181.382 478.775 183.834 475.982 183.525ZM378.792 45.1912L451.132 53.1833C453.924 53.4918 456.184 51.0352 455.176 48.4153C451.315 38.3816 440.744 24.4389 418.674 22.2684C396.885 20.1255 382.745 30.8503 376.045 39.4494C374.241 41.7644 375.873 44.8687 378.792 45.1912Z" fill="#04528B" fill-opacity="0.06"/>
</svg>
