<svg width="715" height="860" viewBox="0 0 715 860" fill="none" xmlns="http://www.w3.org/2000/svg">
<path fill-rule="evenodd" clip-rule="evenodd" d="M321.229 823.279L636.017 859.508C654.367 861.62 670.952 848.472 673.062 830.141L696.217 628.948C698.327 610.618 685.166 594.05 666.817 591.951C658.633 591.015 649.842 590.011 640.539 588.948C493.983 572.203 220.499 540.956 198.929 534.983C185.21 531.183 175.573 515.566 170.052 500.704C164.266 485.131 177.078 473.855 193.605 475.671L675.843 528.685C693.514 530.628 709.733 518.407 711.658 500.753C723.53 391.918 700.166 311.509 675.348 251.335C655.986 204.39 605.022 162.485 570.829 143.192C563.478 139.045 557.435 132.833 554.846 124.805C554.709 124.381 554.571 123.953 554.432 123.521C548.109 103.888 539.122 75.9839 511.795 49.5527C476.029 14.9603 430.212 -16.3896 337.074 11.5847C285.904 26.9539 256.105 72.6742 244.468 106.086C239.595 120.079 228.84 132.345 214.663 136.695C80.7709 177.784 26.7138 300.96 16.3279 360.523C-1.38167 422.214 -18.5318 571.956 54.5439 677.393C127.62 782.829 262.782 818.582 321.229 823.279ZM562.656 445.658L198.694 405.447C190.969 404.594 186.544 396.365 190.859 389.908C218.575 348.439 287.396 288.111 398.576 299.045C510.616 310.064 559.626 385.614 573.942 432.877C576.095 439.986 570.046 446.474 562.656 445.658ZM305.466 79.5885L496.896 100.738C504.285 101.554 510.264 95.0532 507.597 88.1203C497.381 61.5683 469.406 24.6721 411.002 18.9282C353.343 13.2575 315.924 41.6385 298.194 64.3941C293.421 70.5203 297.741 78.735 305.466 79.5885Z" fill="#0BCA63" fill-opacity="0.05"/>
</svg>
