<svg width="1920" height="1169" viewBox="0 0 1920 1169" fill="none" xmlns="http://www.w3.org/2000/svg">
<rect width="1920" height="1169" fill="white"/>
<path fill-rule="evenodd" clip-rule="evenodd" d="M866.234 946.279L1181.02 982.508C1199.37 984.62 1215.96 971.472 1218.07 953.141L1241.22 751.948C1243.33 733.618 1230.17 717.05 1211.82 714.951C1203.64 714.015 1194.85 713.011 1185.54 711.948C1038.99 695.203 765.504 663.956 743.934 657.983C730.214 654.183 720.578 638.566 715.057 623.704C709.271 608.131 722.083 596.855 738.61 598.671L1220.85 651.685C1238.52 653.628 1254.74 641.407 1256.66 623.753C1268.54 514.918 1245.17 434.509 1220.35 374.335C1200.99 327.39 1150.03 285.485 1115.83 266.192C1108.48 262.045 1102.44 255.833 1099.85 247.805C1099.71 247.381 1099.58 246.953 1099.44 246.521C1093.11 226.888 1084.13 198.984 1056.8 172.553C1021.03 137.96 975.217 106.61 882.079 134.585C830.909 149.954 801.109 195.674 789.473 229.086C784.6 243.079 773.845 255.345 759.668 259.695C625.776 300.784 571.719 423.96 561.333 483.523C543.623 545.214 526.473 694.956 599.549 800.393C672.624 905.829 807.787 941.582 866.234 946.279ZM1107.66 568.658L743.699 528.447C735.974 527.594 731.549 519.365 735.864 512.908C763.58 471.439 832.401 411.111 943.581 422.045C1055.62 433.064 1104.63 508.614 1118.95 555.877C1121.1 562.986 1115.05 569.474 1107.66 568.658ZM850.471 202.588L1041.9 223.738C1049.29 224.554 1055.27 218.053 1052.6 211.12C1042.39 184.568 1014.41 147.672 956.007 141.928C898.347 136.258 860.929 164.639 843.199 187.394C838.426 193.52 842.746 201.735 850.471 202.588Z" fill="#0BCA63" fill-opacity="0.05"/>
</svg>
