<svg width="44" height="44" viewBox="0 0 44 44" fill="none" xmlns="http://www.w3.org/2000/svg">
<path d="M36.08 3.52002H7.92C5.4912 3.52002 3.52 5.49122 3.52 7.92002V36.08C3.52 38.5088 5.4912 40.48 7.92 40.48H36.08C38.5088 40.48 40.48 38.5088 40.48 36.08V7.92002C40.48 5.49122 38.5088 3.52002 36.08 3.52002ZM32.56 16.72H30.8C28.9168 16.72 28.16 17.16 28.16 18.48V21.12H32.56L31.68 25.52H28.16V38.72H23.76V25.52H20.24V21.12H23.76V18.48C23.76 14.96 25.52 12.32 29.04 12.32C31.592 12.32 32.56 13.2 32.56 13.2V16.72Z" fill="white" fill-opacity="0.39"/>
</svg>
