<svg width="50" height="50" viewBox="0 0 50 50" fill="none" xmlns="http://www.w3.org/2000/svg">
<path d="M44.8984 14.5C44.5 12.3008 42.6016 10.6992 40.3984 10.1992C37.1016 9.5 31 9 24.3984 9C17.8008 9 11.6016 9.5 8.30078 10.1992C6.10156 10.6992 4.19922 12.1992 3.80078 14.5C3.39844 17 3 20.5 3 25C3 29.5 3.39844 33 3.89844 35.5C4.30078 37.6992 6.19922 39.3008 8.39844 39.8008C11.8984 40.5 17.8984 41 24.5 41C31.1016 41 37.1016 40.5 40.6016 39.8008C42.8008 39.3008 44.6992 37.8008 45.1016 35.5C45.5 33 46 29.3984 46.1016 25C45.8984 20.5 45.3984 17 44.8984 14.5ZM19 32V18L31.1992 25L19 32Z" fill="white" fill-opacity="0.39"/>
</svg>
