<svg width="250" height="48" viewBox="0 0 250 48" fill="none" xmlns="http://www.w3.org/2000/svg">
<path d="M35.952 37.656H34.272L27.456 23.928H8.352L1.68 37.656H0L17.952 0.791992L35.952 37.656ZM26.88 22.536L17.856 4.24799L9.024 22.536H26.88Z" fill="white"/>
<path d="M50.0389 38.184C46.9989 38.184 44.6469 37.352 42.9829 35.688C41.3509 34.024 40.5349 31.672 40.5349 28.632V16.056H42.0709V28.632C42.0709 31.256 42.7589 33.288 44.1349 34.728C45.5429 36.136 47.5109 36.84 50.0389 36.84C51.5749 36.84 52.9829 36.504 54.2629 35.832C55.5429 35.128 56.5509 34.152 57.2869 32.904C58.0229 31.656 58.3909 30.232 58.3909 28.632V16.056H59.9269V37.656H58.3909V33.624C57.6549 34.968 56.5509 36.072 55.0789 36.936C53.6069 37.768 51.9269 38.184 50.0389 38.184Z" fill="white"/>
<path d="M65.988 16.056H67.524V20.856C68.228 19.256 69.428 17.976 71.124 17.016C72.82 16.024 74.692 15.528 76.74 15.528C79.396 15.528 81.492 16.376 83.028 18.072C84.596 19.736 85.38 22.072 85.38 25.08V37.656H83.844V25.08C83.844 22.488 83.204 20.472 81.924 19.032C80.676 17.592 78.916 16.872 76.644 16.872C74.98 16.872 73.444 17.256 72.036 18.024C70.66 18.76 69.556 19.784 68.724 21.096C67.924 22.408 67.524 23.896 67.524 25.56V37.656H65.988V16.056Z" fill="white"/>
<path d="M99.1691 37.944C96.8011 37.944 94.8331 37.224 93.2651 35.784C91.7291 34.344 90.9611 32.36 90.9611 29.832V7.36799H92.4971V16.056H99.1211V17.4H92.4971V29.832C92.4971 31.944 93.1211 33.608 94.3691 34.824C95.6491 36.008 97.2491 36.6 99.1691 36.6V37.944Z" fill="white"/>
<path d="M112.135 47.208C108.551 47.208 105.719 45.928 103.639 43.368V40.92C104.695 42.584 105.895 43.816 107.239 44.616C108.583 45.448 110.151 45.864 111.943 45.864C113.767 45.864 115.319 45.48 116.599 44.712C117.911 43.944 118.903 42.888 119.575 41.544C120.247 40.232 120.583 38.76 120.583 37.128V33.48C119.815 34.984 118.647 36.152 117.079 36.984C115.543 37.784 113.863 38.184 112.039 38.184C110.215 38.184 108.599 37.784 107.191 36.984C105.783 36.184 104.679 35.064 103.879 33.624C103.111 32.184 102.727 30.52 102.727 28.632V16.056H104.263V28.632C104.263 30.36 104.615 31.848 105.319 33.096C106.055 34.312 107.015 35.24 108.199 35.88C109.383 36.52 110.679 36.84 112.087 36.84C113.623 36.84 115.047 36.472 116.359 35.736C117.671 34.968 118.695 33.96 119.431 32.712C120.199 31.432 120.583 30.072 120.583 28.632V16.056H122.119V36.984C122.119 38.904 121.719 40.632 120.919 42.168C120.151 43.736 119.015 44.968 117.511 45.864C116.007 46.76 114.215 47.208 112.135 47.208Z" fill="white"/>
<path d="M139.23 1.65599H140.814V37.656H139.23V1.65599Z" fill="white"/>
<path d="M156.807 47.208C153.223 47.208 150.391 45.928 148.311 43.368V40.92C149.367 42.584 150.567 43.816 151.911 44.616C153.255 45.448 154.823 45.864 156.615 45.864C158.439 45.864 159.991 45.48 161.271 44.712C162.583 43.944 163.575 42.888 164.247 41.544C164.919 40.232 165.255 38.76 165.255 37.128V33.48C164.487 34.984 163.319 36.152 161.751 36.984C160.215 37.784 158.535 38.184 156.711 38.184C154.887 38.184 153.271 37.784 151.863 36.984C150.455 36.184 149.351 35.064 148.551 33.624C147.783 32.184 147.399 30.52 147.399 28.632V16.056H148.935V28.632C148.935 30.36 149.287 31.848 149.991 33.096C150.727 34.312 151.687 35.24 152.871 35.88C154.055 36.52 155.351 36.84 156.759 36.84C158.295 36.84 159.719 36.472 161.031 35.736C162.343 34.968 163.367 33.96 164.103 32.712C164.871 31.432 165.255 30.072 165.255 28.632V16.056H166.791V36.984C166.791 38.904 166.391 40.632 165.591 42.168C164.823 43.736 163.687 44.968 162.183 45.864C160.679 46.76 158.887 47.208 156.807 47.208Z" fill="white"/>
<path d="M182.523 38.184C180.475 38.184 178.571 37.672 176.811 36.648C175.051 35.624 173.659 34.248 172.635 32.52C171.611 30.76 171.099 28.872 171.099 26.856C171.099 24.84 171.611 22.968 172.635 21.24C173.659 19.48 175.051 18.088 176.811 17.064C178.571 16.04 180.475 15.528 182.523 15.528C184.603 15.528 186.571 16.088 188.427 17.208C190.283 18.296 191.579 19.72 192.315 21.48V16.056H193.851V37.656H192.315V32.28C191.451 34.072 190.107 35.512 188.283 36.6C186.491 37.656 184.571 38.184 182.523 38.184ZM182.619 36.84C184.379 36.84 186.011 36.392 187.515 35.496C189.019 34.568 190.203 33.352 191.067 31.848C191.963 30.312 192.411 28.648 192.411 26.856C192.411 25.096 191.963 23.448 191.067 21.912C190.171 20.376 188.971 19.16 187.467 18.264C185.963 17.336 184.331 16.872 182.571 16.872C180.811 16.872 179.163 17.336 177.627 18.264C176.123 19.192 174.907 20.424 173.979 21.96C173.083 23.496 172.635 25.144 172.635 26.904C172.635 28.664 173.083 30.312 173.979 31.848C174.907 33.352 176.139 34.568 177.675 35.496C179.211 36.392 180.859 36.84 182.619 36.84Z" fill="white"/>
<path d="M211.238 38.184C209.286 38.184 207.398 37.656 205.574 36.6C203.782 35.544 202.406 34.152 201.446 32.424V37.656H199.91V1.65599H201.446V21.528C202.31 19.704 203.654 18.248 205.478 17.16C207.302 16.072 209.222 15.528 211.238 15.528C213.318 15.528 215.222 16.04 216.95 17.064C218.71 18.088 220.102 19.464 221.126 21.192C222.15 22.92 222.662 24.808 222.662 26.856C222.662 28.904 222.15 30.792 221.126 32.52C220.102 34.248 218.71 35.624 216.95 36.648C215.222 37.672 213.318 38.184 211.238 38.184ZM211.334 36.84C213.094 36.84 214.726 36.392 216.23 35.496C217.734 34.568 218.918 33.352 219.782 31.848C220.678 30.312 221.126 28.648 221.126 26.856C221.126 25.096 220.678 23.448 219.782 21.912C218.886 20.376 217.686 19.16 216.182 18.264C214.678 17.336 213.046 16.872 211.286 16.872C209.526 16.872 207.878 17.336 206.342 18.264C204.838 19.192 203.622 20.424 202.694 21.96C201.798 23.496 201.35 25.144 201.35 26.904C201.35 28.664 201.798 30.312 202.694 31.848C203.622 33.352 204.854 34.568 206.39 35.496C207.926 36.392 209.574 36.84 211.334 36.84Z" fill="white"/>
<path d="M237.744 38.424C235.568 38.424 233.6 37.896 231.84 36.84C230.08 35.752 228.704 34.328 227.712 32.568C226.72 30.776 226.224 28.84 226.224 26.76C226.224 24.712 226.72 22.808 227.712 21.048C228.736 19.288 230.112 17.896 231.84 16.872C233.6 15.816 235.552 15.288 237.696 15.288C239.808 15.288 241.728 15.816 243.456 16.872C245.216 17.896 246.592 19.288 247.584 21.048C248.576 22.808 249.072 24.712 249.072 26.76C249.072 28.904 248.592 30.872 247.632 32.664C246.672 34.424 245.328 35.832 243.6 36.888C241.904 37.912 239.952 38.424 237.744 38.424ZM237.744 37.08C239.568 37.08 241.232 36.616 242.736 35.688C244.24 34.76 245.408 33.528 246.24 31.992C247.104 30.424 247.536 28.712 247.536 26.856C247.536 25.032 247.104 23.336 246.24 21.768C245.376 20.2 244.192 18.952 242.688 18.024C241.184 17.096 239.52 16.632 237.696 16.632C235.872 16.632 234.192 17.112 232.656 18.072C231.152 19 229.952 20.248 229.056 21.816C228.192 23.384 227.76 25.08 227.76 26.904C227.76 28.728 228.192 30.424 229.056 31.992C229.952 33.528 231.152 34.76 232.656 35.688C234.192 36.616 235.888 37.08 237.744 37.08Z" fill="white"/>
</svg>
