<svg width="246" height="54" viewBox="0 0 246 54" fill="none" xmlns="http://www.w3.org/2000/svg">
<path d="M0.0723877 8.69531H12.6818V40.5938H0.0723877V8.69531Z" fill="white"/>
<path d="M49.3146 42.1641C49.3146 49.5547 45.6036 53.25 38.1818 53.25H36.7286V16.6875H49.3146V42.1641ZM19.4552 16.6875H32.4161V40.5938H30.3068C24.5568 40.5938 21.1271 38.6406 20.0177 34.7344C19.6427 33.4688 19.4552 32.0078 19.4552 30.3516V16.6875Z" fill="white"/>
<path d="M72.3302 16.6875H85.2677V40.5938H83.7911C79.7286 40.5938 76.8068 39.8828 75.0255 38.4609C73.2286 37.0234 72.3302 34.6484 72.3302 31.3359V16.6875ZM55.4083 28.9219C55.4083 27.2031 55.6349 25.6094 56.088 24.1406C56.5411 22.6562 57.2443 21.3594 58.1974 20.25C60.2599 17.875 63.213 16.6875 67.0568 16.6875H68.8615V40.5938H67.6427C63.7052 40.5938 60.6583 39.5156 58.5021 37.3594C56.4396 35.2969 55.4083 32.4844 55.4083 28.9219Z" fill="white"/>
<path d="M143.205 8.69531H153.705V21.9375H151.08C149.361 21.9375 148.096 21.7578 147.283 21.3984C146.471 21.0234 145.83 20.6094 145.361 20.1562C144.908 19.6875 144.518 19.0781 144.19 18.3281C143.533 16.7969 143.205 14.6719 143.205 11.9531V8.69531ZM128.041 8.69531H140.651V40.5938H128.041V8.69531ZM114.916 8.69531H125.416V11.9531C125.416 15.9688 124.69 18.7031 123.236 20.1562C122.049 21.3438 120.151 21.9375 117.541 21.9375H114.916V8.69531Z" fill="white"/>
<path d="M166.619 10.2656C161.447 10.2656 158.861 8.64844 158.861 5.41406C158.861 3.75781 159.479 2.57031 160.713 1.85156C161.947 1.11719 163.83 0.75 166.361 0.75C168.893 0.75 170.76 1.11719 171.963 1.85156C173.166 2.57031 173.768 3.76562 173.768 5.4375C173.768 7.09375 173.205 8.3125 172.08 9.09375C170.971 9.875 169.151 10.2656 166.619 10.2656ZM160.174 16.7109H172.783V40.5938H160.174V16.7109Z" fill="white"/>
<path d="M196.291 16.6875H198.401C204.151 16.6875 207.58 18.6406 208.69 22.5469C209.065 23.8125 209.252 25.2734 209.252 26.9297V40.5938H196.291V16.6875ZM179.393 16.6875H192.424V40.5938H179.393V16.6875Z" fill="white"/>
<path d="M232.174 16.6875H245.205V40.5938H232.174V16.6875ZM215.346 16.6875H228.307V40.5938H226.197C220.447 40.5938 217.018 38.6406 215.908 34.7344C215.533 33.4688 215.346 32.0078 215.346 30.3516V16.6875Z" fill="white"/>
</svg>
