<svg width="270" height="42" viewBox="0 0 270 42" fill="none" xmlns="http://www.w3.org/2000/svg">
<path d="M5.12386 34.342C2.841 34.342 1.10602 33.9796 0.0559082 33.4812V28.2713C0.832081 28.679 2.11048 28.9961 3.66283 28.9961C7.36107 28.9961 9.4613 27.4105 9.4613 22.8801V0.907735H16.1729V23.3785C16.1729 31.0348 12.3377 34.342 5.12386 34.342Z" fill="white"/>
<path d="M31.355 34.342C25.0543 34.342 20.7625 31.4425 20.7625 23.1066V9.8326H27.2915V21.974C27.2915 26.8215 29.0722 29.4039 33.5009 29.4039C38.0666 29.4039 41.08 26.3232 41.08 21.7928V9.8326H47.609V33.9343H41.354L41.08 29.3586H40.7604C39.1624 32.4392 35.4642 34.342 31.355 34.342Z" fill="white"/>
<path d="M62.9919 34.3873C54.9106 34.3873 50.4818 31.2613 50.2079 26.3232H56.5543C56.7369 28.9508 59.0197 30.4006 63.1745 30.4006C66.8728 30.4006 69.1557 29.4492 69.1557 27.2746C69.1557 24.8735 67.6033 24.4204 62.6267 23.9674C54.317 23.1972 51.0297 21.6116 51.0297 16.9C51.0297 12.3243 55.5041 9.37956 63.0376 9.37956C70.0231 9.37956 74.3606 12.1431 74.8171 17.0359H68.6534C68.3795 14.4989 66.1423 13.321 62.9919 13.321C59.6589 13.321 57.3304 14.2724 57.3304 16.4017C57.3304 18.5309 59.248 18.984 63.9507 19.437C72.3517 20.2072 75.5477 21.6569 75.5477 26.8668C75.5477 31.3972 71.5298 34.3873 62.9919 34.3873Z" fill="white"/>
<path d="M87.8691 33.9343C83.9882 33.9343 81.614 32.1674 81.614 28.3166V14.7254H76.8657V9.8326H81.614V3.39945L88.006 2.17624V9.8326H94.1698V14.7254H88.006V26.3232C88.006 27.9541 88.8279 28.4072 90.4259 28.4072H94.1698V33.9343H87.8691Z" fill="white"/>
<path d="M122.145 34.342C111.278 34.342 106.439 29.9022 106.302 23.4691H113.333C113.47 27.4558 116.575 29.6757 122.373 29.6757C127.761 29.6757 130.409 27.8635 130.409 24.8735C130.409 21.068 127.395 20.6149 121.277 19.8447C112.328 18.7575 107.169 16.9 107.169 10.3309C107.169 4.079 112.785 0.5 121.78 0.5C130.409 0.5 135.659 4.16961 136.116 10.3762H129.313C128.993 6.75193 126.071 5.12099 121.506 5.12099C116.803 5.12099 114.063 6.84254 114.063 9.60608C114.063 12.9586 116.666 13.4569 123.058 14.2271C132.235 15.3144 137.349 17.0359 137.349 24.3751C137.349 30.5818 132.007 34.342 122.145 34.342Z" fill="white"/>
<path d="M140.931 41.5V9.8326H147.049L147.278 13.9552H147.552C149.013 11.2823 152.254 9.42486 157.048 9.42486C164.217 9.42486 169.056 14.2271 169.056 21.8834C169.056 29.4945 164.217 34.3873 157.003 34.3873C152.802 34.3873 149.195 32.5298 147.689 29.6304H147.415V41.5H140.931ZM155.131 29.4492C159.559 29.4492 162.527 26.595 162.527 21.8834C162.527 17.0812 159.559 14.363 155.131 14.363C150.245 14.363 147.415 17.3983 147.415 21.068V22.5177C147.415 26.3232 150.245 29.4492 155.131 29.4492Z" fill="white"/>
<path d="M172.856 6.43481V0.907735H179.339V6.43481H172.856ZM172.856 33.9343V9.8326H179.339V33.9343H172.856Z" fill="white"/>
<path d="M197.148 34.342C188.473 34.342 183.131 29.4492 183.131 21.8381C183.131 14.1365 188.884 9.37956 197.467 9.37956C205.138 9.37956 210.297 13.0492 210.799 18.4856H204.361C203.631 15.858 200.983 14.363 197.421 14.363C192.582 14.363 189.614 17.353 189.614 21.8381C189.614 26.6403 192.536 29.3586 197.376 29.3586C200.891 29.3586 203.722 27.7276 204.453 25.0547H210.936C210.388 30.763 204.407 34.342 197.148 34.342Z" fill="white"/>
<path d="M227.876 34.342C219.155 34.342 213.539 29.6757 213.539 21.974C213.539 14.1818 219.201 9.37956 227.784 9.37956C236.779 9.37956 242.075 14.5442 241.481 23.1972H220.023C220.159 27.4105 223.173 29.9022 228.013 29.9022C231.756 29.9022 234.542 28.4978 235.272 26.3685H241.39C240.66 31.1707 235.089 34.342 227.876 34.342ZM227.739 13.8646C223.355 13.8646 220.525 15.9939 219.977 19.5729H235.089C234.815 15.9939 232.213 13.8646 227.739 13.8646Z" fill="white"/>
<path d="M256.5 34.3873C248.419 34.3873 243.99 31.2613 243.716 26.3232H250.062C250.245 28.9508 252.528 30.4006 256.683 30.4006C260.381 30.4006 262.664 29.4492 262.664 27.2746C262.664 24.8735 261.112 24.4204 256.135 23.9674C247.825 23.1972 244.538 21.6116 244.538 16.9C244.538 12.3243 249.012 9.37956 256.546 9.37956C263.531 9.37956 267.869 12.1431 268.325 17.0359H262.162C261.888 14.4989 259.651 13.321 256.5 13.321C253.167 13.321 250.839 14.2724 250.839 16.4017C250.839 18.5309 252.756 18.984 257.459 19.437C265.86 20.2072 269.056 21.6569 269.056 26.8668C269.056 31.3972 265.038 34.3873 256.5 34.3873Z" fill="white"/>
</svg>
