  <svg width="198" height="38" viewBox="0 0 198 38" fill="none" xmlns="http://www.w3.org/2000/svg">
                            <path fill-rule="evenodd" clip-rule="evenodd" d="M16.0738 37.9939L30.199 37.9939C31.0224 37.9939 31.6899 37.3071 31.6899 36.4599V27.161C31.6899 26.3139 31.0227 25.6272 30.1994 25.6278C29.8322 25.6281 29.4377 25.6284 29.0203 25.6288C22.4446 25.6344 10.174 25.6447 9.18832 25.4855C8.56137 25.3842 8.055 24.7225 7.73474 24.0735C7.39916 23.3936 7.90906 22.8119 8.65021 22.808L30.2766 22.6946C31.0691 22.6905 31.7251 22.0479 31.7204 21.2325C31.6914 16.2058 30.2469 12.6607 28.8411 10.0462C27.7444 8.00642 25.2739 6.36251 23.6612 5.66199C23.3146 5.51139 23.0153 5.25976 22.8597 4.90719C22.8515 4.88857 22.8432 4.86977 22.8348 4.85079C22.4548 3.98845 21.9146 2.76279 20.5696 1.70062C18.8094 0.310479 16.6206 -0.879 12.6385 0.885968C10.4507 1.85565 9.36407 4.09758 9.01904 5.68273C8.87454 6.34658 8.46077 6.96253 7.85512 7.2354C2.13503 9.81254 0.368881 15.7149 0.21251 18.4863C-0.257339 21.3932 -0.253638 28.3136 3.51995 32.7394C7.29354 37.1652 13.4615 38.0865 16.0738 37.9939ZM24.8409 19.5016L8.51766 19.5781C8.17121 19.5797 7.93333 19.2276 8.09151 18.9105C9.10755 16.8734 11.8478 13.7603 16.8273 13.6754C21.8452 13.5898 24.4007 16.7786 25.2756 18.8594C25.4071 19.1723 25.1723 19.5 24.8409 19.5016ZM11.5853 4.15384L20.1707 4.11359C20.5021 4.11204 20.7338 3.78412 20.5803 3.48188C19.9926 2.32437 18.5656 0.788242 15.9499 0.83284C13.3675 0.87687 11.855 2.36788 11.1858 3.49893C11.0057 3.80343 11.2388 4.15546 11.5853 4.15384Z" fill="#03CA63"/>
                            <path d="M44.5618 32.0349V9.6687H62.6611V13.289H48.945V18.9956H61.2V22.3705H48.945V28.4146H62.7207V32.0349H44.5618Z" fill="#034091"/>
                            <path d="M65.1723 32.0349V15.7128H68.989L69.1679 18.4434H69.3468C70.0028 16.6025 71.6427 15.4673 73.7896 15.4673C74.3561 15.4673 74.8034 15.498 75.1612 15.5901V19.5172C74.714 19.4251 74.1772 19.3638 73.7001 19.3638C71.1358 19.3638 69.4959 20.7137 69.4064 23.7204V32.0349H65.1723Z" fill="#034091"/>
                            <path d="M77.1693 32.0349V15.7128H80.9859L81.1648 18.4434H81.3437C81.9997 16.6025 83.6397 15.4673 85.7866 15.4673C86.3531 15.4673 86.8004 15.498 87.1582 15.5901V19.5172C86.7109 19.4251 86.1742 19.3638 85.6971 19.3638C83.1328 19.3638 81.4928 20.7137 81.4034 23.7204V32.0349H77.1693Z" fill="#034091"/>
                            <path d="M95.6818 32.3417C91.0005 32.3417 87.8398 29.0282 87.8398 23.8738C87.8398 18.6888 91.0005 15.4367 95.6818 15.4367C98.8425 15.4367 100.96 16.6946 101.884 18.5047H102.093L102.212 15.7128H106.237V32.0349H102.003V29.1202H101.794C100.81 31.0838 98.4549 32.3417 95.6818 32.3417ZM96.964 28.9975C100.125 28.9975 101.973 26.8805 101.973 24.3034V23.3216C101.973 20.8364 100.125 18.7808 96.964 18.7808C94.0717 18.7808 92.1037 20.591 92.1037 23.8738C92.1037 27.0646 94.0419 28.9975 96.964 28.9975Z" fill="#034091"/>
                            <path d="M109.404 32.0349V15.7128H113.489L113.638 18.7808H113.876C114.95 16.6332 117.425 15.406 119.989 15.406C124.074 15.406 126.907 17.3389 126.907 23.0761V32.0349H122.673V23.8431C122.673 20.499 121.48 18.7502 118.588 18.7502C115.606 18.7502 113.638 20.8671 113.638 23.9045V32.0349H109.404Z" fill="#034091"/>
                            <path d="M137.032 32.3723C132.321 32.3723 129.13 29.0588 129.13 23.8738C129.13 18.7195 132.321 15.406 137.062 15.406C139.865 15.406 142.101 16.6332 143.085 18.6274H143.294V9.6687H147.528V32.0349H143.473L143.383 29.1816H143.174C142.25 31.0838 140.163 32.3723 137.032 32.3723ZM138.314 29.0282C141.356 29.0282 143.264 27.0953 143.264 24.3647V23.4136C143.264 20.683 141.385 18.7502 138.314 18.7502C135.243 18.7502 133.394 20.683 133.394 23.8738C133.394 27.0646 135.243 29.0282 138.314 29.0282Z" fill="#034091"/>
                            <path d="M159.371 32.311C153.676 32.311 150.008 29.1509 150.008 23.9352C150.008 18.6581 153.706 15.406 159.312 15.406C165.186 15.406 168.645 18.9036 168.257 24.7636H154.243C154.332 27.6169 156.3 29.3043 159.461 29.3043C161.906 29.3043 163.725 28.3532 164.202 26.9112H168.197C167.72 30.1633 164.082 32.311 159.371 32.311ZM159.282 18.4434C156.419 18.4434 154.571 19.8853 154.213 22.3091H164.082C163.903 19.8853 162.204 18.4434 159.282 18.4434Z" fill="#034091"/>
                            <path d="M170.757 32.0349V15.7128H174.574L174.753 18.4434H174.932C175.588 16.6025 177.228 15.4673 179.374 15.4673C179.941 15.4673 180.388 15.498 180.746 15.5901V19.5172C180.299 19.4251 179.762 19.3638 179.285 19.3638C176.721 19.3638 175.081 20.7137 174.991 23.7204V32.0349H170.757Z" fill="#034091"/>
                            <path d="M189.8 32.3417C184.522 32.3417 181.63 30.2247 181.451 26.8805H185.596C185.715 28.66 187.206 29.6418 189.919 29.6418C192.335 29.6418 193.826 28.9975 193.826 27.5248C193.826 25.8987 192.812 25.5919 189.562 25.2851C184.135 24.7636 181.988 23.6897 181.988 20.499C181.988 17.4002 184.91 15.406 189.83 15.406C194.392 15.406 197.225 17.2775 197.523 20.591H193.498C193.319 18.8729 191.858 18.0752 189.8 18.0752C187.623 18.0752 186.103 18.7195 186.103 20.1615C186.103 21.6035 187.355 21.9103 190.426 22.2171C195.913 22.7386 198 23.7204 198 27.2487C198 30.3167 195.376 32.3417 189.8 32.3417Z" fill="#034091"/>
                            </svg>