<svg width="1920" height="719" viewBox="0 0 1920 719" fill="none" xmlns="http://www.w3.org/2000/svg">
<path d="M0 0H1920V652.309C1920 652.309 1426 802.364 960 652.309C494 502.255 0 652.309 0 652.309V0Z" fill="#034091"/>
<path fill-rule="evenodd" clip-rule="evenodd" d="M131.978 281.172L189.378 255.645C192.724 254.157 194.231 250.242 192.745 246.899L176.43 210.213C174.944 206.871 171.027 205.367 167.683 206.858C166.191 207.522 164.589 208.236 162.893 208.992C136.182 220.897 86.3369 243.113 82.0523 244.266C79.3269 244.999 76.108 243.303 73.6681 241.322C71.1114 239.246 72.163 236.03 75.1679 234.675L162.851 195.145C166.064 193.697 167.602 189.976 166.152 186.768C157.215 166.988 145.125 155.613 134.825 147.838C126.79 141.773 113.866 139.752 106.084 139.902C104.411 139.934 102.754 139.483 101.503 138.373C101.437 138.314 101.37 138.255 101.303 138.195C98.2454 135.48 93.8998 131.62 86.5709 129.86C76.979 127.557 65.9976 126.819 52.9125 140.979C45.7235 148.758 45.2413 159.567 46.6203 166.444C47.1979 169.324 46.5972 172.502 44.6148 174.673C25.8921 195.178 29.0707 221.656 33.2978 232.872C36.4888 245.19 48.6456 272.486 71.7451 283.128C94.8446 293.769 121.525 286.258 131.978 281.172ZM135.16 192.371L68.9624 222.171C67.5574 222.804 65.9729 221.845 66.0593 220.307C66.614 210.434 72.2876 193.2 92.3732 183.867C112.614 174.461 128.593 182.424 135.799 189.052C136.883 190.049 136.504 191.766 135.16 192.371ZM54.3662 155.775L89.1834 140.101C90.5274 139.496 90.8934 137.784 89.7395 136.869C85.3203 133.364 76.8265 129.882 66.2755 134.785C55.8589 139.626 52.3288 148.241 51.5939 153.913C51.396 155.44 52.9612 156.407 54.3662 155.775Z" fill="#0BCA63" fill-opacity="0.11"/>
<path fill-rule="evenodd" clip-rule="evenodd" d="M384.942 429.224L503.897 442.915C510.831 443.713 517.098 438.744 517.896 431.817L526.646 355.788C527.443 348.862 522.47 342.601 515.536 341.808C512.443 341.454 509.121 341.075 505.605 340.673C450.223 334.345 346.877 322.537 338.726 320.28C333.541 318.844 329.9 312.942 327.813 307.326C325.627 301.441 330.468 297.18 336.714 297.867L518.947 317.9C525.624 318.634 531.753 314.016 532.481 307.345C536.967 266.217 528.138 235.832 518.759 213.093C511.443 195.352 492.184 179.517 479.263 172.226C476.485 170.659 474.201 168.312 473.223 165.278C473.171 165.118 473.119 164.956 473.066 164.793C470.677 157.374 467.281 146.829 456.954 136.841C443.439 123.769 426.125 111.922 390.929 122.493C371.593 128.301 360.332 145.578 355.934 158.204C354.093 163.492 350.029 168.127 344.672 169.771C294.075 185.298 273.647 231.845 269.723 254.353C263.03 277.666 256.55 334.252 284.164 374.095C311.779 413.939 362.855 427.449 384.942 429.224ZM476.174 286.525L338.637 271.33C335.718 271.007 334.046 267.898 335.676 265.458C346.15 249.787 372.156 226.99 414.17 231.122C456.509 235.286 475.03 263.835 480.439 281.695C481.253 284.382 478.967 286.833 476.174 286.525ZM378.985 148.191L451.324 156.183C454.117 156.492 456.376 154.035 455.368 151.415C451.508 141.382 440.936 127.439 418.866 125.268C397.077 123.125 382.937 133.85 376.237 142.449C374.433 144.764 376.066 147.869 378.985 148.191Z" fill="#0BCA63" fill-opacity="0.11"/>
<path fill-rule="evenodd" clip-rule="evenodd" d="M1381.37 429.224L1500.33 442.915C1507.26 443.713 1513.53 438.744 1514.32 431.817L1523.07 355.788C1523.87 348.862 1518.9 342.601 1511.96 341.808C1508.87 341.454 1505.55 341.075 1502.03 340.673C1446.65 334.345 1343.31 322.537 1335.16 320.28C1329.97 318.844 1326.33 312.942 1324.24 307.326C1322.06 301.441 1326.9 297.18 1333.14 297.867L1515.38 317.9C1522.05 318.634 1528.18 314.016 1528.91 307.345C1533.4 266.217 1524.57 235.832 1515.19 213.093C1507.87 195.352 1488.61 179.517 1475.69 172.226C1472.91 170.659 1470.63 168.312 1469.65 165.278C1469.6 165.118 1469.55 164.956 1469.5 164.793C1467.11 157.374 1463.71 146.829 1453.38 136.841C1439.87 123.769 1422.55 111.922 1387.36 122.493C1368.02 128.301 1356.76 145.578 1352.36 158.204C1350.52 163.492 1346.46 168.127 1341.1 169.771C1290.5 185.298 1270.08 231.845 1266.15 254.353C1259.46 277.666 1252.98 334.252 1280.59 374.095C1308.21 413.939 1359.28 427.449 1381.37 429.224ZM1472.6 286.525L1335.07 271.33C1332.15 271.007 1330.47 267.898 1332.11 265.458C1342.58 249.787 1368.59 226.99 1410.6 231.122C1452.94 235.286 1471.46 263.835 1476.87 281.695C1477.68 284.382 1475.4 286.833 1472.6 286.525ZM1375.41 148.191L1447.75 156.183C1450.55 156.492 1452.81 154.035 1451.8 151.415C1447.94 141.382 1437.37 127.439 1415.3 125.268C1393.51 123.125 1379.37 133.85 1372.67 142.449C1370.86 144.764 1372.49 147.869 1375.41 148.191Z" fill="#0BCA63" fill-opacity="0.11"/>
<path fill-rule="evenodd" clip-rule="evenodd" d="M1734.87 281.172L1792.27 255.645C1795.61 254.157 1797.12 250.242 1795.63 246.899L1779.32 210.213C1777.83 206.871 1773.92 205.367 1770.57 206.858C1769.08 207.522 1767.48 208.236 1765.78 208.992C1739.07 220.897 1689.23 243.113 1684.94 244.266C1682.22 244.999 1679 243.303 1676.56 241.322C1674 239.246 1675.05 236.03 1678.06 234.675L1765.74 195.145C1768.95 193.697 1770.49 189.976 1769.04 186.768C1760.1 166.988 1748.01 155.613 1737.72 147.838C1729.68 141.773 1716.76 139.752 1708.97 139.902C1707.3 139.934 1705.64 139.483 1704.39 138.373C1704.33 138.314 1704.26 138.255 1704.19 138.195C1701.14 135.48 1696.79 131.62 1689.46 129.86C1679.87 127.557 1668.89 126.819 1655.8 140.979C1648.61 148.758 1648.13 159.567 1649.51 166.444C1650.09 169.324 1649.49 172.502 1647.5 174.673C1628.78 195.178 1631.96 221.656 1636.19 232.872C1639.38 245.19 1651.54 272.486 1674.63 283.128C1697.73 293.769 1724.41 286.258 1734.87 281.172ZM1738.05 192.371L1671.85 222.171C1670.45 222.804 1668.86 221.845 1668.95 220.307C1669.5 210.434 1675.18 193.2 1695.26 183.867C1715.5 174.461 1731.48 182.424 1738.69 189.052C1739.77 190.049 1739.39 191.766 1738.05 192.371ZM1657.26 155.775L1692.07 140.101C1693.42 139.496 1693.78 137.784 1692.63 136.869C1688.21 133.364 1679.72 129.882 1669.17 134.785C1658.75 139.626 1655.22 148.241 1654.48 153.913C1654.29 155.44 1655.85 156.407 1657.26 155.775Z" fill="#0BCA63" fill-opacity="0.11"/>
</svg>
