<svg width="1920" height="863" viewBox="0 0 1920 863" fill="none" xmlns="http://www.w3.org/2000/svg">
<rect width="1920" height="863" fill="white"/>
<path fill-rule="evenodd" clip-rule="evenodd" d="M164.993 432.315L227.377 439.699C231.014 440.129 234.31 437.533 234.74 433.901L239.46 394.028C239.889 390.396 237.291 387.103 233.655 386.675C232.033 386.484 230.291 386.279 228.447 386.063C199.403 382.649 145.204 376.28 140.931 375.082C138.214 374.32 136.313 371.217 135.228 368.267C134.091 365.176 136.638 362.949 139.914 363.32L235.485 374.138C238.986 374.535 242.21 372.122 242.603 368.623C245.026 347.054 240.445 331.098 235.564 319.153C231.755 309.833 221.678 301.493 214.912 297.646C213.457 296.819 212.263 295.584 211.755 293.991C211.728 293.907 211.701 293.822 211.674 293.736C210.433 289.84 208.669 284.302 203.268 279.044C196.199 272.163 187.136 265.919 168.654 271.405C158.499 274.42 152.562 283.465 150.234 290.081C149.259 292.852 147.119 295.277 144.305 296.131C117.735 304.191 106.939 328.576 104.842 340.378C101.291 352.597 97.7957 382.273 112.216 403.223C126.636 424.172 153.409 431.347 164.993 432.315ZM213.098 357.605L140.967 349.401C139.437 349.227 138.565 347.593 139.424 346.315C144.945 338.112 158.628 326.196 180.663 328.434C202.868 330.691 212.536 345.7 215.344 355.079C215.766 356.49 214.563 357.772 213.098 357.605ZM162.344 284.867L200.281 289.182C201.746 289.349 202.935 288.064 202.411 286.688C200.403 281.417 194.88 274.085 183.305 272.909C171.878 271.747 164.441 277.35 160.912 281.85C159.961 283.062 160.813 284.693 162.344 284.867Z" fill="#012045"/>
<path fill-rule="evenodd" clip-rule="evenodd" d="M478.749 587.224L597.704 600.915C604.638 601.713 610.906 596.744 611.703 589.817L620.453 513.788C621.25 506.862 616.277 500.601 609.343 499.808C606.251 499.454 602.929 499.075 599.413 498.673C544.031 492.345 440.684 480.537 432.533 478.28C427.349 476.844 423.707 470.942 421.621 465.326C419.435 459.441 424.276 455.18 430.521 455.867L612.754 475.9C619.432 476.634 625.561 472.016 626.288 465.345C630.775 424.217 621.945 393.832 612.567 371.093C605.25 353.352 585.992 337.517 573.07 330.226C570.292 328.659 568.009 326.312 567.03 323.278C566.979 323.118 566.927 322.956 566.874 322.793C564.485 315.374 561.089 304.829 550.762 294.841C537.246 281.769 519.933 269.922 484.737 280.493C465.4 286.301 454.139 303.578 449.742 316.204C447.9 321.492 443.836 326.127 438.479 327.771C387.883 343.298 367.455 389.845 363.53 412.353C356.838 435.666 350.357 492.252 377.972 532.095C405.586 571.939 456.663 585.449 478.749 587.224ZM569.982 444.525L432.444 429.33C429.525 429.007 427.853 425.898 429.484 423.458C439.957 407.787 465.964 384.99 507.978 389.122C550.317 393.286 568.837 421.835 574.247 439.695C575.06 442.382 572.774 444.834 569.982 444.525ZM472.792 306.191L545.132 314.183C547.924 314.492 550.184 312.035 549.176 309.415C545.315 299.382 534.744 285.439 512.674 283.268C490.885 281.125 476.744 291.85 470.045 300.449C468.241 302.764 469.873 305.869 472.792 306.191Z" fill="#012045"/>
<path fill-rule="evenodd" clip-rule="evenodd" d="M1445.92 587.224L1564.87 600.915C1571.81 601.713 1578.08 596.744 1578.87 589.817L1587.62 513.788C1588.42 506.862 1583.45 500.601 1576.51 499.808C1573.42 499.454 1570.1 499.075 1566.58 498.673C1511.2 492.345 1407.85 480.537 1399.7 478.28C1394.52 476.844 1390.88 470.942 1388.79 465.326C1386.6 459.441 1391.45 455.18 1397.69 455.867L1579.92 475.9C1586.6 476.634 1592.73 472.016 1593.46 465.345C1597.94 424.217 1589.11 393.832 1579.74 371.093C1572.42 353.352 1553.16 337.517 1540.24 330.226C1537.46 328.659 1535.18 326.312 1534.2 323.278C1534.15 323.118 1534.1 322.956 1534.04 322.793C1531.65 315.374 1528.26 304.829 1517.93 294.841C1504.42 281.769 1487.1 269.922 1451.91 280.493C1432.57 286.301 1421.31 303.578 1416.91 316.204C1415.07 321.492 1411.01 326.127 1405.65 327.771C1355.05 343.298 1334.62 389.845 1330.7 412.353C1324.01 435.666 1317.53 492.252 1345.14 532.095C1372.76 571.939 1423.83 585.449 1445.92 587.224ZM1537.15 444.525L1399.61 429.33C1396.69 429.007 1395.02 425.898 1396.65 423.458C1407.13 407.787 1433.13 384.99 1475.15 389.122C1517.49 393.286 1536.01 421.835 1541.42 439.695C1542.23 442.382 1539.94 444.834 1537.15 444.525ZM1439.96 306.191L1512.3 314.183C1515.09 314.492 1517.35 312.035 1516.35 309.415C1512.48 299.382 1501.91 285.439 1479.84 283.268C1458.05 281.125 1443.91 291.85 1437.21 300.449C1435.41 302.764 1437.04 305.869 1439.96 306.191Z" fill="#012045"/>
<path fill-rule="evenodd" clip-rule="evenodd" d="M1738.43 432.315L1800.81 439.699C1804.45 440.129 1807.75 437.533 1808.18 433.901L1812.9 394.028C1813.33 390.396 1810.73 387.103 1807.09 386.675C1805.47 386.484 1803.73 386.279 1801.88 386.063C1772.84 382.649 1718.64 376.28 1714.37 375.082C1711.65 374.32 1709.75 371.217 1708.67 368.267C1707.53 365.176 1710.08 362.949 1713.35 363.32L1808.92 374.138C1812.42 374.535 1815.65 372.122 1816.04 368.623C1818.46 347.054 1813.88 331.098 1809 319.153C1805.19 309.833 1795.12 301.493 1788.35 297.646C1786.89 296.819 1785.7 295.584 1785.19 293.991C1785.17 293.907 1785.14 293.822 1785.11 293.736C1783.87 289.84 1782.11 284.302 1776.71 279.044C1769.64 272.163 1760.57 265.919 1742.09 271.405C1731.94 274.42 1726 283.465 1723.67 290.081C1722.7 292.852 1720.56 295.277 1717.74 296.131C1691.17 304.191 1680.38 328.576 1678.28 340.378C1674.73 352.597 1671.23 382.273 1685.65 403.223C1700.07 424.172 1726.85 431.347 1738.43 432.315ZM1786.54 357.605L1714.4 349.401C1712.87 349.227 1712 347.593 1712.86 346.315C1718.38 338.112 1732.07 326.196 1754.1 328.434C1776.31 330.691 1785.97 345.7 1788.78 355.079C1789.2 356.49 1788 357.772 1786.54 357.605ZM1735.78 284.867L1773.72 289.182C1775.18 289.349 1776.37 288.064 1775.85 286.688C1773.84 281.417 1768.32 274.085 1756.74 272.909C1745.32 271.747 1737.88 277.35 1734.35 281.85C1733.4 283.062 1734.25 284.693 1735.78 284.867Z" fill="#012045"/>
</svg>
