<svg width="259" height="64" viewBox="0 0 259 64" fill="none" xmlns="http://www.w3.org/2000/svg">
    <path
        d="M14.703 4.91509C13.3486 4.91509 12.086 5.06508 10.9153 5.36506C9.76754 5.64197 8.76898 6.10348 7.91963 6.74959C7.07028 7.37263 6.39309 8.20335 5.88807 9.24175C5.40601 10.2802 5.16497 11.5378 5.16497 13.0146C5.16497 14.5145 5.40601 15.7837 5.88807 16.8221C6.39309 17.8374 7.07028 18.6681 7.91963 19.3142C8.76898 19.9603 9.76754 20.4219 10.9153 20.6988C12.086 20.9757 13.3486 21.1141 14.703 21.1141H18.4562C20.0631 21.1141 21.624 20.8718 23.1391 20.3872C24.6771 19.8796 25.997 19.0027 27.0989 17.7566L29.3026 19.1412C28.6599 20.0411 27.9253 20.768 27.0989 21.3218C26.2725 21.8525 25.3887 22.2564 24.4475 22.5333C23.5064 22.8102 22.5193 22.9948 21.4863 23.0871C20.4763 23.1794 19.4662 23.2255 18.4562 23.2255H14.703C13.0272 23.2255 11.4662 23.0525 10.02 22.7063C8.59681 22.3371 7.35722 21.7487 6.30127 20.941C5.26827 20.1103 4.45335 19.0489 3.85651 17.7566C3.28263 16.4644 2.99568 14.8837 2.99568 13.0146C2.99568 11.1455 3.28263 9.56481 3.85651 8.27258C4.45335 6.98035 5.26827 5.93041 6.30127 5.12277C7.35722 4.29205 8.59681 3.70362 10.02 3.35749C11.4662 2.98828 13.0272 2.80368 14.703 2.80368H18.4562C19.4662 2.80368 20.4763 2.84983 21.4863 2.94213C22.5193 3.03443 23.5064 3.21904 24.4475 3.49594C25.3887 3.77285 26.2725 4.18821 27.0989 4.74202C27.9253 5.27276 28.6599 5.9881 29.3026 6.88805L27.0989 8.27258C25.997 7.0265 24.6771 6.16117 23.1391 5.67658C21.624 5.16892 20.0631 4.91509 18.4562 4.91509H14.703ZM18.4562 6.85344C20.109 6.85344 21.624 7.16495 23.0014 7.78799C24.3787 8.38796 25.5494 9.38021 26.5135 10.7647L31.9884 7.51109C31.2079 6.17271 30.3356 5.07662 29.3715 4.22282C28.4074 3.34595 27.3514 2.66522 26.2036 2.18064C25.0788 1.67297 23.8622 1.32684 22.5537 1.14224C21.2682 0.957634 19.9024 0.865332 18.4562 0.865332H14.703C12.7058 0.865332 10.8694 1.09609 9.19365 1.5576C7.54086 1.99603 6.10615 2.69984 4.88951 3.66901C3.69583 4.63818 2.75465 5.8958 2.06599 7.44186C1.40028 8.96485 1.06743 10.8224 1.06743 13.0146C1.06743 15.2068 1.40028 17.0759 2.06599 18.622C2.75465 20.1449 3.69583 21.391 4.88951 22.3602C6.10615 23.3294 7.54086 24.0447 9.19365 24.5062C10.8694 24.9447 12.7058 25.1639 14.703 25.1639H18.4562C19.9024 25.1639 21.2682 25.0716 22.5537 24.887C23.8622 24.7024 25.0788 24.3678 26.2036 23.8832C27.3514 23.3755 28.4074 22.6948 29.3715 21.841C30.3356 20.9872 31.2079 19.8796 31.9884 18.5181L26.5135 15.2645C25.5494 16.649 24.3787 17.6528 23.0014 18.2758C21.624 18.8758 20.109 19.1758 18.4562 19.1758H14.703C13.67 19.1758 12.6944 19.0719 11.7761 18.8643C10.8579 18.6566 10.0545 18.322 9.36582 17.8605C8.67716 17.3759 8.12622 16.7413 7.71303 15.9567C7.29983 15.1722 7.09323 14.1915 7.09323 13.0146C7.09323 11.8608 7.29983 10.8917 7.71303 10.1071C8.12622 9.32252 8.67716 8.68794 9.36582 8.20335C10.0774 7.71877 10.8924 7.37263 11.8106 7.16495C12.7288 6.95727 13.6929 6.85344 14.703 6.85344H18.4562ZM6.2324 25.6138C4.92394 24.4601 3.87947 23.3871 3.09898 22.3948C2.3185 21.3795 1.71018 20.3872 1.27403 19.4181C0.837873 18.4258 0.550931 17.4105 0.413198 16.3721C0.275465 15.3337 0.206599 14.2145 0.206599 13.0146C0.206599 10.6609 0.562408 8.66486 1.27403 7.0265C1.98565 5.36506 2.98421 4.01514 4.26971 2.97674C5.55522 1.93834 7.08175 1.18839 8.84932 0.726878C10.6398 0.242293 12.5911 0 14.703 0H18.4562C19.7646 0 21.0157 0.0576888 22.2094 0.173066C23.426 0.265369 24.6312 0.542275 25.8249 1.00379C27.0186 1.4653 28.2352 2.15756 29.4748 3.08058C30.7144 4.00361 32.0458 5.2843 33.469 6.92266C33.6986 7.17649 33.9511 7.47647 34.2266 7.82261C34.502 8.16874 34.766 8.53795 35.0185 8.93023C35.271 9.32252 35.5235 9.72634 35.7761 10.1417C36.0286 10.534 36.2581 10.9032 36.4647 11.2493L29.7502 15.2299L27.1333 12.5992C26.3299 12.0685 25.492 11.6878 24.6197 11.457C23.7474 11.2032 22.8407 11.0763 21.8995 11.0763H18.1463C17.2281 11.0763 16.3557 11.1686 15.5294 11.3532C14.703 11.5378 13.9684 11.8378 13.3256 12.2531C12.7058 12.6685 12.2123 13.2223 11.845 13.9145C11.4777 14.6068 11.2941 15.4606 11.2941 16.4759C11.2941 17.0297 11.34 17.4913 11.4318 17.8605C11.9139 18.022 12.4304 18.1374 12.9813 18.2066C13.5322 18.2758 14.1061 18.3104 14.703 18.3104H18.4562C19.9712 18.3104 21.3945 17.9874 22.7259 17.3413C24.0803 16.6952 25.2739 15.6221 26.3069 14.1222L33.1936 18.2066L36.4647 21.7025C35.5465 23.2717 34.5479 24.5524 33.469 25.5446C32.4131 26.5369 31.2768 27.3099 30.0601 27.8637C28.8435 28.4406 27.558 28.8329 26.2036 29.0406C24.8493 29.2713 23.4145 29.3867 21.8995 29.3867H18.1463C16.9755 29.3867 15.8163 29.3059 14.6685 29.1444C13.5437 29.006 12.4533 28.7752 11.3974 28.4521C10.3644 28.1522 9.40025 27.7599 8.50499 27.2753C7.63268 26.8138 6.87515 26.26 6.2324 25.6138Z"
        fill="white" />
    <path
        d="M64.6211 14.053H45.4074V23.2255H43.307V2.80368H45.4074V11.9762H64.6211V2.80368H66.7559V23.2255H64.6211V14.053ZM68.6842 0.865332H62.6928V10.0725H47.3356V0.865332H41.3787V25.1639H47.3356V15.9567H62.6928V25.1639H68.6842V0.865332ZM51.5365 9.20714H61.832V0H69.545L72.885 3.56517V29.3867H65.3786L61.832 26.0292V20.1796H51.5365V29.3867H44.0645L40.5179 26.0292V0H48.1965L51.5365 3.56517V9.20714Z"
        fill="white" />
    <path
        d="M79.1115 2.80368H81.1775V23.2255H79.1115V2.80368ZM83.0713 0.865332H77.2177V25.1639H83.0713V0.865332ZM76.3569 26.0292V0H83.9322L87.2722 3.56517V29.3867H79.9035L76.3569 26.0292Z"
        fill="white" />
    <path
        d="M107.543 21.1141C108.874 21.1141 110.114 20.9757 111.262 20.6988C112.433 20.3988 113.443 19.9373 114.292 19.3142C115.164 18.6681 115.841 17.8374 116.324 16.8221C116.806 15.7837 117.047 14.5145 117.047 13.0146V2.80368H119.25V13.0146C119.25 15.1145 118.906 16.8336 118.217 18.172C117.529 19.4873 116.599 20.5257 115.428 21.2872C114.258 22.0256 112.88 22.5333 111.296 22.8102C109.735 23.0871 108.083 23.2255 106.338 23.2255C105.328 23.2255 104.306 23.1794 103.273 23.0871C102.263 22.9948 101.288 22.8102 100.347 22.5333C99.4054 22.2564 98.5101 21.8525 97.6608 21.3218C96.8344 20.768 96.0998 20.0411 95.457 19.1412L97.7296 17.7566C98.3494 18.5181 99.0381 19.1181 99.7956 19.5565C100.553 19.995 101.357 20.3295 102.206 20.5603C103.055 20.7911 103.928 20.941 104.823 21.0103C105.718 21.0795 106.625 21.1141 107.543 21.1141ZM106.338 19.1758C104.685 19.1758 103.159 18.8758 101.758 18.2758C100.381 17.6528 99.2103 16.649 98.2461 15.2645L92.8401 18.5181C93.6895 20.0411 94.6421 21.241 95.6981 22.1179C96.754 22.9948 97.9018 23.664 99.1414 24.1255C100.381 24.5639 101.701 24.8524 103.101 24.9908C104.501 25.1062 105.982 25.1639 107.543 25.1639C109.54 25.1639 111.365 24.9447 113.018 24.5062C114.671 24.0447 116.094 23.3294 117.288 22.3602C118.504 21.391 119.445 20.1449 120.111 18.622C120.777 17.0759 121.11 15.2068 121.11 13.0146V0.865332H115.153V13.0146C115.153 14.3991 114.9 15.4952 114.395 16.3029C113.89 17.1105 113.225 17.7336 112.398 18.172C111.572 18.5873 110.631 18.8643 109.575 19.0027C108.519 19.1181 107.44 19.1758 106.338 19.1758ZM106.338 18.3104C107.325 18.3104 108.289 18.2528 109.23 18.1374C110.194 18.022 111.044 17.7912 111.778 17.4451C112.536 17.0759 113.144 16.5452 113.603 15.8529C114.062 15.1376 114.292 14.1915 114.292 13.0146V0H121.971L125.311 3.56517V16.4759C125.311 18.8066 124.955 20.7911 124.243 22.4294C123.555 24.0678 122.567 25.3946 121.282 26.41C120.019 27.4484 118.504 28.1983 116.737 28.6598C114.992 29.1444 113.075 29.3867 110.986 29.3867C109.701 29.3867 108.45 29.3405 107.233 29.2482C106.04 29.179 104.88 29.0059 103.755 28.729C102.654 28.4521 101.586 28.0483 100.553 27.5176C99.5431 27.0099 98.5905 26.3061 97.6952 25.4062C96.7311 24.5293 95.9276 23.7563 95.2849 23.0871C94.6651 22.4179 94.1371 21.8064 93.701 21.2526C93.2648 20.6988 92.8975 20.1796 92.5991 19.695C92.2777 19.2104 91.9678 18.7027 91.6694 18.172L98.4527 14.1222C98.6134 14.3761 98.7971 14.6299 99.0037 14.8837C99.1873 15.1145 99.3939 15.3683 99.6235 15.6452C99.876 15.9221 100.163 16.1875 100.484 16.4413C101.311 17.0874 102.229 17.5605 103.239 17.8605C104.272 18.1604 105.305 18.3104 106.338 18.3104Z"
        fill="white" />
    <path
        d="M132.577 2.80368H134.643V23.2255H132.577V2.80368ZM136.537 0.865332H130.683V25.1639H136.537V0.865332ZM129.822 26.0292V0H137.398L140.738 3.56517V29.3867H133.369L129.822 26.0292Z"
        fill="white" />
    <path
        d="M163.962 21.1141C165.293 21.1141 166.533 20.9757 167.681 20.6988C168.852 20.3988 169.862 19.9373 170.711 19.3142C171.583 18.6681 172.26 17.8374 172.743 16.8221C173.225 15.7837 173.466 14.5145 173.466 13.0146C173.466 11.5378 173.213 10.2802 172.708 9.24175C172.226 8.20335 171.56 7.37263 170.711 6.74959C169.862 6.10348 168.852 5.64197 167.681 5.36506C166.533 5.06508 165.293 4.91509 163.962 4.91509H160.174C158.82 4.91509 157.558 5.06508 156.387 5.36506C155.239 5.64197 154.24 6.10348 153.391 6.74959C152.542 7.37263 151.865 8.20335 151.36 9.24175C150.877 10.2802 150.636 11.5378 150.636 13.0146C150.636 14.5145 150.877 15.7837 151.36 16.8221C151.865 17.8374 152.542 18.6681 153.391 19.3142C154.24 19.9603 155.239 20.4219 156.387 20.6988C157.558 20.9757 158.82 21.1141 160.174 21.1141H163.962ZM160.174 19.1758C159.141 19.1758 158.166 19.0719 157.248 18.8643C156.329 18.6566 155.526 18.322 154.837 17.8605C154.149 17.3759 153.598 16.7413 153.184 15.9567C152.771 15.1722 152.565 14.1915 152.565 13.0146C152.565 11.8608 152.771 10.8917 153.184 10.1071C153.598 9.32252 154.149 8.68794 154.837 8.20335C155.549 7.71877 156.364 7.37263 157.282 7.16495C158.2 6.95727 159.164 6.85344 160.174 6.85344H163.962C164.972 6.85344 165.936 6.95727 166.854 7.16495C167.773 7.37263 168.576 7.71877 169.265 8.20335C169.953 8.68794 170.504 9.32252 170.918 10.1071C171.331 10.8917 171.537 11.8608 171.537 13.0146C171.537 14.1684 171.331 15.1376 170.918 15.9221C170.527 16.7067 169.988 17.3413 169.299 17.8259C168.611 18.3104 167.807 18.6566 166.889 18.8643C165.971 19.0719 164.995 19.1758 163.962 19.1758H160.174ZM148.467 13.0146C148.467 11.1455 148.754 9.56481 149.328 8.27258C149.925 6.98035 150.74 5.93041 151.773 5.12277C152.829 4.29205 154.068 3.70362 155.492 3.35749C156.938 2.98828 158.499 2.80368 160.174 2.80368H163.962C165.638 2.80368 167.187 2.98828 168.611 3.35749C170.034 3.7267 171.262 4.31512 172.295 5.12277C173.351 5.93041 174.166 6.98035 174.74 8.27258C175.336 9.56481 175.635 11.1455 175.635 13.0146C175.635 14.8837 175.336 16.4644 174.74 17.7566C174.166 19.0489 173.351 20.0988 172.295 20.9064C171.262 21.7141 170.034 22.3025 168.611 22.6717C167.187 23.0409 165.638 23.2255 163.962 23.2255H160.174C158.499 23.2255 156.938 23.0525 155.492 22.7063C154.068 22.3371 152.829 21.7487 151.773 20.941C150.74 20.1103 149.925 19.0489 149.328 17.7566C148.754 16.4644 148.467 14.8837 148.467 13.0146ZM146.539 13.0146C146.539 15.2068 146.872 17.0759 147.537 18.622C148.226 20.1449 149.167 21.391 150.361 22.3602C151.578 23.3294 153.012 24.0447 154.665 24.5062C156.341 24.9447 158.177 25.1639 160.174 25.1639H163.962C165.959 25.1639 167.784 24.9447 169.437 24.5062C171.09 24.0447 172.513 23.3294 173.707 22.3602C174.923 21.391 175.864 20.1449 176.53 18.622C177.196 17.0759 177.529 15.2068 177.529 13.0146C177.529 10.8224 177.196 8.96485 176.53 7.44186C175.864 5.8958 174.923 4.63818 173.707 3.66901C172.513 2.69984 171.09 1.99603 169.437 1.5576C167.784 1.09609 165.959 0.865332 163.962 0.865332H160.174C158.177 0.865332 156.341 1.09609 154.665 1.5576C153.012 1.99603 151.578 2.69984 150.361 3.66901C149.167 4.63818 148.226 5.8958 147.537 7.44186C146.872 8.96485 146.539 10.8224 146.539 13.0146ZM145.678 13.0146C145.678 10.6609 146.034 8.66486 146.745 7.0265C147.457 5.36506 148.456 4.01514 149.741 2.97674C151.027 1.93834 152.553 1.18839 154.321 0.726878C156.111 0.242293 158.063 0 160.174 0H163.962C165.293 0 166.545 0.080764 167.715 0.242292C168.909 0.380745 170.08 0.692265 171.227 1.17685C172.375 1.63836 173.512 2.30755 174.636 3.18442C175.784 4.03822 176.966 5.192 178.183 6.64575C179.216 7.68415 180.065 9.05715 180.731 10.7647C181.397 12.4723 181.73 14.3761 181.73 16.4759C181.73 18.8066 181.374 20.7911 180.662 22.4294C179.973 24.0678 178.986 25.3946 177.701 26.41C176.438 27.4484 174.923 28.1983 173.156 28.6598C171.411 29.1444 169.494 29.3867 167.405 29.3867H163.618C161.276 29.3867 159.096 29.1213 157.075 28.5906C155.055 28.0599 153.391 27.1484 152.083 25.8561C150.774 24.7024 149.707 23.6178 148.88 22.6025C148.054 21.5641 147.4 20.5372 146.918 19.5219C146.459 18.5066 146.137 17.4682 145.954 16.4067C145.77 15.3452 145.678 14.2145 145.678 13.0146ZM163.962 18.3104C164.857 18.3104 165.707 18.2297 166.51 18.0681C167.337 17.8835 168.06 17.5836 168.679 17.1682C169.299 16.7528 169.781 16.2106 170.126 15.5414C170.493 14.8491 170.677 14.0069 170.677 13.0146C170.677 12.4608 170.608 11.9531 170.47 11.4916C169.529 11.2147 168.507 11.0763 167.405 11.0763H163.618C162.7 11.0763 161.827 11.1686 161.001 11.3532C160.174 11.5378 159.44 11.8378 158.797 12.2531C158.177 12.6685 157.684 13.2223 157.316 13.9145C156.949 14.6068 156.766 15.4606 156.766 16.4759C156.766 17.0297 156.811 17.4913 156.903 17.8605C157.385 18.022 157.902 18.1374 158.453 18.2066C159.004 18.2758 159.578 18.3104 160.174 18.3104H163.962Z"
        fill="white" />
    <path
        d="M188.236 2.80368H190.337V11.5955L207.45 2.80368H210.962L190.853 13.0146C194.182 14.7453 197.487 16.4529 200.77 18.1374C204.076 19.7988 207.393 21.4949 210.721 23.2255H207.45L190.337 14.4684V23.2255H188.236V2.80368ZM192.265 17.6182L206.899 25.1639L217.608 25.1293C213.751 23.1217 209.929 21.1141 206.142 19.1065C202.354 17.0759 198.532 15.0452 194.675 13.0146L217.918 0.865332H206.899C204.466 2.15756 202.033 3.42672 199.599 4.6728C197.166 5.8958 194.721 7.14188 192.265 8.41103V0.865332H186.343V25.1639H192.265V17.6182ZM201.424 15.6452L204.454 17.2374C205.556 17.8143 206.693 18.4143 207.863 19.0373C209.057 19.6604 210.251 20.2834 211.444 20.9064C212.638 21.5295 213.82 22.1525 214.991 22.7756C216.185 23.3986 217.321 23.987 218.4 24.5408L226.457 29.3521L210.136 29.3867L196.466 22.3256V29.3867H189.028L185.482 26.0292V0H193.126L196.466 3.56517V5.26122C197.246 4.86894 198.004 4.48819 198.738 4.11898C199.496 3.7267 200.276 3.32288 201.08 2.90752C201.883 2.49216 202.733 2.05372 203.628 1.59221C204.546 1.10763 205.556 0.576888 206.658 0H218.331L222.67 4.53434L201.424 15.6452Z"
        fill="white" />
    <path
        d="M249.29 11.9762V14.053H231.763V21.1141H252.871V23.2255H229.629V2.80368H252.836V4.91509H231.763V11.9762H249.29ZM254.765 6.85344V0.865332H227.7V25.1639H254.799V19.1758H233.657V15.9567H251.184V10.0725H233.657V6.85344H254.765ZM226.839 26.0292V0H255.626L258.966 3.56517V11.0763H253.697L255.385 12.7723V18.3104L259 21.8756V29.3867H230.386L226.839 26.0292Z"
        fill="white" />
    <path
        d="M6.16354 53.0968C6.89811 53.8122 7.71303 54.3544 8.60829 54.7236C9.50355 55.0928 10.4332 55.3582 11.3974 55.5197C12.3615 55.6582 13.3486 55.739 14.3586 55.762C15.3687 55.762 16.3443 55.762 17.2854 55.762C17.6298 55.762 18.0889 55.7505 18.6628 55.7274C19.2596 55.7043 19.8909 55.6582 20.5566 55.589C21.2453 55.4967 21.9339 55.3813 22.6226 55.2428C23.3112 55.0813 23.931 54.8736 24.482 54.6198C25.0559 54.366 25.515 54.066 25.8593 53.7199C26.2266 53.3506 26.4102 52.9122 26.4102 52.4045C26.4102 51.8969 26.2151 51.4584 25.8249 51.0892C25.4576 50.697 24.9755 50.3624 24.3787 50.0855C23.7818 49.8085 23.1046 49.5778 22.3471 49.3932C21.6125 49.1855 20.878 49.0355 20.1434 48.9432C19.4088 48.8278 18.7202 48.7471 18.0774 48.7009C17.4576 48.6548 16.9526 48.6317 16.5623 48.6317H16.5968C16.0459 48.6086 15.3687 48.5509 14.5652 48.4586C13.7618 48.3663 12.9239 48.2279 12.0516 48.0433C11.1793 47.8587 10.307 47.6279 9.43469 47.351C8.56238 47.051 7.78189 46.6934 7.09323 46.278C6.40457 45.8626 5.84216 45.378 5.40601 44.8242C4.96985 44.2473 4.75178 43.5897 4.75178 42.8513C4.75178 42.0436 4.95837 41.3514 5.37157 40.7745C5.80773 40.1976 6.35866 39.713 7.02436 39.3207C7.71303 38.9054 8.48203 38.5823 9.33139 38.3515C10.1807 38.0977 11.0416 37.9016 11.9139 37.7631C12.7862 37.6247 13.6126 37.5324 14.3931 37.4862C15.1965 37.4401 15.8737 37.417 16.4246 37.417C17.3199 37.417 18.2266 37.4631 19.1448 37.5554C20.086 37.6247 21.0042 37.7631 21.8995 37.9708C22.7948 38.1785 23.6671 38.4669 24.5164 38.8361C25.3658 39.1823 26.1462 39.6322 26.8579 40.186L25.0329 41.5014C24.3672 41.0398 23.6671 40.6822 22.9325 40.4283C22.1979 40.1514 21.4404 39.9438 20.6599 39.8053C19.8794 39.6668 19.0874 39.5861 18.284 39.563C17.4806 39.5169 16.7001 39.4938 15.9426 39.4938C15.4146 39.4938 14.6915 39.5284 13.7733 39.5976C12.878 39.6668 11.9827 39.8168 11.0875 40.0476C10.2152 40.2553 9.45764 40.5899 8.81489 41.0514C8.17214 41.4898 7.85076 42.0898 7.85076 42.8513C7.85076 43.5897 8.16066 44.1897 8.78045 44.6512C9.40025 45.0896 10.2152 45.4473 11.2252 45.7242C12.2352 45.978 13.383 46.1857 14.6685 46.3472C15.977 46.4857 17.3084 46.6357 18.6628 46.7972C20.0171 46.9587 21.3371 47.1549 22.6226 47.3856C23.931 47.5933 25.0903 47.9048 26.1003 48.3202C27.1104 48.7125 27.9253 49.2432 28.5451 49.9124C29.1649 50.5585 29.4748 51.3892 29.4748 52.4045C29.4748 53.1199 29.2567 53.7545 28.8206 54.3083C28.4074 54.8621 27.8564 55.3467 27.1678 55.762C26.4791 56.1543 25.6986 56.4889 24.8263 56.7658C23.977 57.0197 23.1161 57.2273 22.2438 57.3889C21.3945 57.5504 20.5795 57.6658 19.7991 57.735C19.0186 57.8042 18.3758 57.8388 17.8708 57.8388H15.2883C14.3471 57.8388 13.3601 57.8042 12.3271 57.735C11.2941 57.6658 10.284 57.5158 9.29695 57.285C8.30987 57.0312 7.3687 56.6851 6.47343 56.2466C5.57817 55.8082 4.78621 55.2082 4.09755 54.4467L6.16354 53.0968ZM1.23959 53.7199C2.15781 55.2198 3.24819 56.3851 4.51074 57.2158C5.77329 58.0234 7.13914 58.6234 8.60829 59.0157C10.0774 59.3849 11.5925 59.6041 13.1535 59.6733C14.7374 59.7426 16.3098 59.7772 17.8708 59.7772C18.5595 59.7772 19.3744 59.731 20.3156 59.6387C21.2567 59.5233 22.2323 59.3503 23.2424 59.1195C24.2524 58.8888 25.2395 58.5888 26.2036 58.2196C27.1907 57.8273 28.063 57.3658 28.8206 56.835C29.601 56.2812 30.2208 55.6467 30.6799 54.9313C31.162 54.1929 31.403 53.3506 31.403 52.4045C31.403 51.2738 31.1505 50.3162 30.6455 49.5316C30.1634 48.724 29.5207 48.0548 28.7173 47.5241C27.9368 46.9703 27.03 46.5318 25.997 46.2088C24.987 45.8626 23.9425 45.5973 22.8636 45.4127C21.7847 45.2281 20.7288 45.0896 19.6958 44.9973C18.6628 44.905 17.7446 44.8242 16.9411 44.755C16.6656 44.7319 16.1377 44.6858 15.3572 44.6166C14.5767 44.5243 13.7733 44.4089 12.9469 44.2704C12.1205 44.1089 11.3859 43.9127 10.7431 43.682C10.1004 43.4512 9.77902 43.1743 9.77902 42.8513C9.77902 42.4821 10.0774 42.2052 10.6743 42.0206C11.2711 41.8359 11.9483 41.6975 12.7058 41.6052C13.4863 41.5129 14.2324 41.4667 14.944 41.4667C15.6786 41.4437 16.1721 41.4321 16.4246 41.4321C17.1592 41.4321 17.9052 41.4667 18.6628 41.536C19.4203 41.5821 20.1549 41.6975 20.8665 41.8821C21.6011 42.0667 22.2897 42.3321 22.9325 42.6782C23.5982 43.0243 24.2065 43.4743 24.7574 44.0281L29.7847 40.636C28.9124 39.4361 27.9253 38.5015 26.8234 37.8323C25.7216 37.1401 24.5508 36.6209 23.3112 36.2747C22.0717 35.9286 20.7747 35.7094 19.4203 35.6171C18.0889 35.5248 16.746 35.4786 15.3916 35.4786C14.68 35.4786 13.8651 35.5363 12.9469 35.6517C12.0516 35.744 11.1334 35.9055 10.1922 36.1363C9.274 36.367 8.36726 36.667 7.47199 37.0362C6.59969 37.4054 5.8192 37.867 5.13054 38.4208C4.44188 38.9746 3.89095 39.6207 3.47775 40.3591C3.06455 41.0745 2.85795 41.9052 2.85795 42.8513C2.85795 43.9358 3.12194 44.8704 3.64991 45.6549C4.17789 46.4395 4.87803 47.1087 5.75034 47.6625C6.62264 48.2163 7.60973 48.6663 8.71159 49.0124C9.81345 49.3586 10.9268 49.647 12.0516 49.8778C13.1994 50.0855 14.3012 50.2585 15.3572 50.397C16.4361 50.5124 17.3773 50.6162 18.1807 50.7085C18.4103 50.7316 18.8579 50.7777 19.5236 50.8469C20.2123 50.9162 20.9239 51.02 21.6585 51.1585C22.393 51.2738 23.0473 51.4354 23.6211 51.6431C24.195 51.8507 24.482 52.1046 24.482 52.4045C24.482 52.6584 24.2983 52.8776 23.931 53.0622C23.5638 53.2237 23.0932 53.3622 22.5193 53.4776C21.9454 53.5699 21.3141 53.6391 20.6255 53.6852C19.9368 53.7314 19.2596 53.766 18.5939 53.7891C17.9512 53.8122 17.3658 53.8237 16.8378 53.8237C16.3328 53.8237 15.977 53.8237 15.7704 53.8237C14.8981 53.8237 14.0373 53.7891 13.1879 53.7199C12.3385 53.6275 11.5122 53.466 10.7087 53.2353C9.90527 52.9814 9.14774 52.6353 8.43612 52.1969C7.7245 51.7584 7.08175 51.17 6.50787 50.4316L1.23959 53.7199ZM6.2324 49.5663L4.57961 47.8702C3.77617 47.2702 3.1449 46.5664 2.68579 45.7588C2.22668 44.9281 1.99712 43.9589 1.99712 42.8513C1.99712 41.7898 2.2152 40.8552 2.65135 40.0476C3.11046 39.2169 3.7073 38.5015 4.44188 37.9016C5.17645 37.3016 6.01433 36.7939 6.9555 36.3786C7.89667 35.9401 8.8608 35.594 9.84788 35.3402C10.835 35.0864 11.8106 34.9017 12.7747 34.7864C13.7388 34.671 14.6111 34.6133 15.3916 34.6133C16.746 34.6133 18.1118 34.6595 19.4892 34.7518C20.8665 34.821 22.2094 35.0287 23.5178 35.3748C24.8493 35.7209 26.1233 36.2517 27.3399 36.967C28.5566 37.6824 29.6929 38.6861 30.7488 39.9784C31.4604 40.6937 32.0228 41.2937 32.436 41.7783C32.8492 42.2398 33.1706 42.6321 33.4002 42.9551C33.6527 43.2782 33.8363 43.5435 33.9511 43.7512C34.0659 43.9358 34.1806 44.1089 34.2954 44.2704L29.888 47.2472C30.0028 47.3625 30.129 47.4664 30.2667 47.5587C30.4274 47.6279 30.6455 47.7779 30.921 48.0087C31.1964 48.2394 31.5522 48.574 31.9884 49.0124C32.4475 49.4278 33.0558 50.0278 33.8134 50.8123C34.3643 51.3892 34.8004 52.1276 35.1218 53.0276C35.4432 53.9275 35.6039 54.8736 35.6039 55.8659C35.6039 56.9043 35.3514 57.8273 34.8464 58.6349C34.3413 59.4426 33.6871 60.1464 32.8837 60.7463C32.0802 61.3463 31.162 61.854 30.129 62.2693C29.096 62.6847 28.0515 63.0193 26.9956 63.2731C25.9396 63.527 24.9067 63.7116 23.8966 63.8269C22.9095 63.9423 22.0487 64 21.3141 64C19.9598 64 18.5824 64 17.1821 64C15.7819 64 14.4045 63.8846 13.0502 63.6539C11.7188 63.4231 10.4218 63.0424 9.15922 62.5116C7.89667 61.9809 6.73742 61.1732 5.68147 60.0887C4.78621 59.258 4.02868 58.5311 3.40888 57.9081C2.81204 57.2619 2.29554 56.6851 1.85939 56.1774C1.44619 55.6467 1.09038 55.1621 0.791963 54.7236C0.516497 54.2852 0.25251 53.8583 0 53.4429L6.2324 49.5663Z"
        fill="white" />
    <path
        d="M58.8998 41.4667C59.1753 41.4667 59.4507 41.4898 59.7262 41.536C60.0246 41.5821 60.2886 41.6629 60.5182 41.7783C60.7707 41.8936 60.9773 42.0552 61.1379 42.2628C61.2986 42.4705 61.379 42.7474 61.379 43.0936C61.379 43.4166 61.2872 43.682 61.1035 43.8897C60.9428 44.0974 60.7362 44.2589 60.4837 44.3743C60.2312 44.4896 59.9557 44.5704 59.6573 44.6166C59.3589 44.6627 59.0949 44.6858 58.8654 44.6858H46.1251V41.4667H58.8998ZM58.8654 46.5895C59.4163 46.5895 59.9557 46.5318 60.4837 46.4164C61.0347 46.278 61.5167 46.0703 61.9299 45.7934C62.3431 45.5165 62.676 45.1588 62.9285 44.7204C63.181 44.2589 63.3072 43.7166 63.3072 43.0936C63.3072 42.4474 63.181 41.9052 62.9285 41.4667C62.6989 41.0052 62.3775 40.636 61.9643 40.3591C61.5741 40.0591 61.1035 39.8515 60.5526 39.7361C60.0246 39.5976 59.4737 39.5284 58.8998 39.5284H44.1968V46.5895H58.8654ZM44.1968 57.8388H42.0964V37.417H58.8998C59.841 37.417 60.7133 37.5324 61.5167 37.7631C62.3202 37.9708 63.0088 38.3054 63.5827 38.7669C64.1796 39.2053 64.6387 39.7938 64.96 40.5322C65.3044 41.2475 65.4765 42.1013 65.4765 43.0936C65.4765 44.3627 65.1781 45.4127 64.5813 46.2434C64.0074 47.051 63.1466 47.6856 61.9988 48.1471V48.1817C61.4708 48.3663 60.7362 48.5048 59.7951 48.5971C58.8539 48.6894 57.7979 48.7586 56.6272 48.8048C55.4794 48.8278 54.2743 48.8394 53.0117 48.8394C51.7492 48.8394 50.544 48.8278 49.3962 48.8048C48.2485 48.7586 47.2155 48.724 46.2973 48.7009C45.379 48.6778 44.6789 48.6663 44.1968 48.6663V57.8388ZM67.4048 43.0936C67.4048 41.7783 67.1982 40.6476 66.785 39.7015C66.3718 38.7323 65.7864 37.9362 65.0289 37.3131C64.2943 36.6901 63.3991 36.2286 62.3431 35.9286C61.3101 35.6286 60.1623 35.4786 58.8998 35.4786H40.1682V59.7772H46.1251V50.57C46.676 50.57 47.3876 50.5816 48.26 50.6047C49.1552 50.6277 50.1193 50.6623 51.1523 50.7085C52.1853 50.7316 53.2642 50.7431 54.3891 50.7431C55.5139 50.7431 56.5928 50.72 57.6258 50.6739C58.6817 50.6277 59.6573 50.547 60.5526 50.4316C61.4479 50.3162 62.1939 50.1547 62.7907 49.947V49.9124C64.3058 49.2663 65.4536 48.3894 66.2341 47.2818C67.0145 46.1741 67.4048 44.7781 67.4048 43.0936ZM39.3073 60.6425V34.6133H58.8998C59.7951 34.6133 60.6674 34.6825 61.5167 34.821C62.389 34.9364 63.2613 35.2017 64.1336 35.6171C65.0289 36.0094 65.9471 36.5747 66.8883 37.3131C67.8295 38.0516 68.8165 39.0323 69.8495 40.2553C70.5153 40.9245 70.9744 41.8129 71.2269 42.9205C71.4794 44.0281 71.6056 45.2396 71.6056 46.5549C71.6056 48.424 71.1695 49.9701 70.2972 51.1931C69.4478 52.4161 68.1853 53.3968 66.5095 54.1352C66.0504 54.2967 65.4995 54.4352 64.8567 54.5506C64.2369 54.6429 63.5483 54.7236 62.7907 54.7929C62.0332 54.8621 61.2298 54.9082 60.3804 54.9313C59.554 54.9544 58.7162 54.9659 57.8668 54.9659C56.6272 54.9659 55.3991 54.9659 54.1825 54.9659C52.9658 54.9659 51.6803 54.9544 50.3259 54.9313V64H42.8539L39.3073 60.6425Z"
        fill="white" />
    <path
        d="M93.8338 50.3277L86.5684 39.9784L79.1309 50.3277H93.8338ZM90.1151 48.4586H82.8152L86.4996 43.2666L90.1151 48.4586ZM98.9644 57.8388L95.2456 52.4738H77.6503C77.0075 53.3506 76.3762 54.2506 75.7564 55.1736C75.1596 56.0736 74.5398 56.962 73.897 57.8388H71.1424C73.5757 54.4006 75.9975 50.9969 78.4078 47.6279C80.8411 44.2589 83.2629 40.8552 85.6732 37.417H87.326L101.547 57.8388H98.9644ZM84.7435 35.4786L67.5269 59.7772H74.8267L78.6144 54.4121H94.1782L97.9314 59.7772H105.231L88.359 35.4786H84.7435ZM92.2155 38.1785L110.121 64H100.962L97.4838 60.6425L96.072 58.6349H82.4709C82.1954 59.0503 81.8855 59.4887 81.5412 59.9502C81.2198 60.4118 80.887 60.8733 80.5426 61.3348C80.2213 61.8194 79.8999 62.2809 79.5785 62.7193C79.2571 63.1808 78.9587 63.6077 78.6833 64H69.4896L65.8397 60.6425L84.2959 34.6133H88.8066L92.2155 38.1785Z"
        fill="white" />
    <path
        d="M133.697 41.6052C132.664 40.8206 131.504 40.2783 130.219 39.9784C128.956 39.6784 127.682 39.5284 126.397 39.5284H122.644C121.312 39.5284 120.061 39.6784 118.89 39.9784C117.743 40.2553 116.744 40.7168 115.895 41.3629C115.045 41.9859 114.368 42.8167 113.863 43.8551C113.381 44.8935 113.14 46.1511 113.14 47.6279C113.14 49.1278 113.381 50.397 113.863 51.4354C114.345 52.4507 115.011 53.2814 115.86 53.9275C116.733 54.5506 117.743 55.0121 118.89 55.3121C120.038 55.589 121.289 55.7274 122.644 55.7274H126.397C127.591 55.7274 128.727 55.6005 129.806 55.3467C130.908 55.0698 131.895 54.6544 132.767 54.1006C133.639 53.5237 134.385 52.7968 135.005 51.92C135.625 51.02 136.073 49.9355 136.348 48.6663H126.844V46.5895H138.758V47.6279C138.758 49.5432 138.425 51.1585 137.76 52.4738C137.094 53.766 136.199 54.8159 135.074 55.6236C133.949 56.4081 132.641 56.9735 131.149 57.3196C129.657 57.6658 128.073 57.8388 126.397 57.8388H122.644C120.968 57.8388 119.418 57.6542 117.995 57.285C116.572 56.9158 115.332 56.3274 114.276 55.5197C113.243 54.7121 112.428 53.6622 111.832 52.3699C111.235 51.0777 110.936 49.497 110.936 47.6279C110.936 45.7588 111.235 44.1781 111.832 42.8859C112.428 41.5937 113.243 40.5437 114.276 39.7361C115.332 38.9284 116.572 38.34 117.995 37.9708C119.418 37.6016 120.968 37.417 122.644 37.417H126.397C127.246 37.417 128.096 37.4516 128.945 37.5208C129.794 37.567 130.621 37.6824 131.424 37.867C132.228 38.0516 133.008 38.3169 133.766 38.6631C134.546 38.9861 135.269 39.4361 135.935 40.013L133.697 41.6052ZM138.862 40.4976C138.058 39.4361 137.186 38.5823 136.245 37.9362C135.304 37.2901 134.305 36.7824 133.249 36.4132C132.216 36.044 131.126 35.8017 129.978 35.6863C128.83 35.5479 127.636 35.4786 126.397 35.4786H122.644C120.647 35.4786 118.822 35.7094 117.169 36.1709C115.516 36.6093 114.081 37.3131 112.865 38.2823C111.671 39.2515 110.741 40.5091 110.076 42.0552C109.41 43.5782 109.077 45.4357 109.077 47.6279C109.077 49.8201 109.41 51.6892 110.076 53.2353C110.741 54.7582 111.671 56.0043 112.865 56.9735C114.081 57.9427 115.516 58.658 117.169 59.1195C118.822 59.558 120.647 59.7772 122.644 59.7772H126.397C128.371 59.7772 130.219 59.5695 131.941 59.1541C133.685 58.7157 135.2 58.0234 136.486 57.0773C137.771 56.1082 138.781 54.8505 139.516 53.3045C140.273 51.7584 140.652 49.8662 140.652 47.6279V44.6858H124.916V50.57H133.869C133.502 51.1931 133.031 51.7123 132.457 52.1276C131.883 52.543 131.252 52.8776 130.563 53.1314C129.898 53.3622 129.197 53.5352 128.463 53.6506C127.751 53.7429 127.063 53.7891 126.397 53.7891H122.644C121.611 53.7891 120.635 53.6852 119.717 53.4776C118.799 53.2699 117.995 52.9353 117.306 52.4738C116.618 51.9892 116.067 51.3546 115.654 50.57C115.241 49.7855 115.034 48.8048 115.034 47.6279C115.034 46.4741 115.241 45.505 115.654 44.7204C116.067 43.9358 116.618 43.3012 117.306 42.8167C118.018 42.3321 118.833 41.9859 119.751 41.7783C120.669 41.5706 121.634 41.4667 122.644 41.4667H126.397C127.751 41.4667 129.048 41.686 130.288 42.1244C131.527 42.5398 132.629 43.2551 133.593 44.2704L138.862 40.4976ZM114.586 60.2964C113.301 59.1888 112.245 58.1388 111.418 57.1466C110.592 56.1543 109.938 55.1621 109.456 54.1698C108.997 53.1545 108.675 52.1276 108.492 51.0892C108.308 50.0278 108.216 48.874 108.216 47.6279C108.216 45.2742 108.572 43.2782 109.284 41.6398C109.995 39.9784 110.982 38.6284 112.245 37.59C113.53 36.5516 115.057 35.8017 116.824 35.3402C118.592 34.8556 120.532 34.6133 122.644 34.6133H126.397C127.659 34.6133 128.876 34.671 130.047 34.7864C131.217 34.9017 132.354 35.144 133.456 35.5132C134.558 35.8594 135.613 36.3901 136.623 37.1055C137.656 37.7977 138.655 38.7323 139.619 39.9091C140.308 40.6014 140.87 41.1783 141.306 41.6398C141.743 42.1013 142.087 42.4936 142.339 42.8167C142.615 43.1397 142.821 43.4051 142.959 43.6128C143.12 43.7974 143.258 43.9704 143.372 44.132L142.339 44.8588L144.853 47.3856V51.0892C144.853 53.466 144.463 55.4736 143.682 57.1119C142.902 58.7503 141.834 60.0772 140.48 61.0925C139.126 62.1309 137.53 62.8693 135.694 63.3077C133.88 63.7692 131.929 64 129.84 64H126.087C123.745 64 121.565 63.7 119.545 63.1001C117.525 62.5232 115.872 61.5886 114.586 60.2964ZM124.055 45.8972C123.367 46.0126 122.724 46.1972 122.127 46.4511C121.553 46.6818 121.048 47.0049 120.612 47.4202C120.176 47.8356 119.832 48.3548 119.579 48.9778C119.35 49.5778 119.235 50.2816 119.235 51.0892C119.235 51.6431 119.281 52.1046 119.372 52.4738C119.855 52.6353 120.371 52.7507 120.922 52.8199C121.473 52.8891 122.047 52.9237 122.644 52.9237H125.743L124.055 51.4354V45.8972Z"
        fill="white" />
    <path
        d="M174.242 48.6663H155.029V57.8388H152.928V37.417H155.029V46.5895H174.242V37.417H176.377V57.8388H174.242V48.6663ZM178.305 35.4786H172.314V44.6858H156.957V35.4786H151V59.7772H156.957V50.57H172.314V59.7772H178.305V35.4786ZM161.158 43.8204H171.453V34.6133H179.166L182.506 38.1785V64H175L171.453 60.6425V54.7929H161.158V64H153.686L150.139 60.6425V34.6133H157.818L161.158 38.1785V43.8204Z"
        fill="white" />
</svg>