<svg width="36" height="36" viewBox="0 0 36 36" fill="none" xmlns="http://www.w3.org/2000/svg">
<path d="M17.25 32.625C8.775 32.625 1.875 25.725 1.875 17.25C1.875 8.775 8.775 1.875 17.25 1.875C25.725 1.875 32.625 8.775 32.625 17.25C32.625 25.725 25.725 32.625 17.25 32.625ZM17.25 4.125C10.005 4.125 4.125 10.02 4.125 17.25C4.125 24.48 10.005 30.375 17.25 30.375C24.495 30.375 30.375 24.48 30.375 17.25C30.375 10.02 24.495 4.125 17.25 4.125Z" fill="#9DA8B9"/>
<path d="M33 34.1249C32.715 34.1249 32.43 34.0199 32.205 33.7949L29.205 30.7949C28.77 30.3599 28.77 29.6399 29.205 29.2049C29.64 28.7699 30.36 28.7699 30.795 29.2049L33.795 32.2049C34.23 32.6399 34.23 33.3599 33.795 33.7949C33.57 34.0199 33.285 34.1249 33 34.1249Z" fill="#9DA8B9"/>
</svg>
