<svg width="77" height="77" viewBox="0 0 114 77" fill="none" xmlns="http://www.w3.org/2000/svg">
<g filter="url(#filter0_dd_242_481)">
<path fill-rule="evenodd" clip-rule="evenodd" d="M12.6111 47.1455C10.9601 45.8167 10 43.8115 10 41.6923L10 21.2308C10 19.1022 10.9686 17.0892 12.632 15.7609L22.9392 7.53005C24.1796 6.53952 25.7198 6 27.3072 6L93 6C96.866 6 100 9.13401 100 13L100 50C100 53.866 96.866 57 93 57L27.3223 57C25.7257 57 24.1771 56.4542 22.9333 55.4532L12.6111 47.1455ZM25.4634 31.4998C25.4634 34.4073 22.9742 36.7644 19.9035 36.7644C16.8329 36.7644 14.3437 34.4073 14.3437 31.4998C14.3437 28.5923 16.8329 26.2353 19.9035 26.2353C22.9742 26.2353 25.4634 28.5923 25.4634 31.4998Z" fill="white"/>
</g>
<path d="M31.72 34.392V30.552H40.216V34.392H31.72ZM45.8335 39V28.296H41.2975V24.816H42.0655C44.2975 24.816 45.9295 23.568 46.1215 21.696H50.4175V39H45.8335ZM59.9618 39.24C55.9538 39.24 53.4098 37.008 53.2898 33.744H57.9458C58.0658 34.656 58.8338 35.256 59.9858 35.256C61.2818 35.256 62.0978 34.368 62.0978 33.216C62.0978 31.992 61.2818 31.032 59.9138 31.032C58.8098 31.032 58.1858 31.608 57.9698 32.352H53.6018L54.1058 21.696H65.5778V25.68H58.1378L58.0418 27.792L58.2338 27.864C58.8098 27.48 59.9138 27.24 60.9218 27.24C64.5458 27.24 66.7058 29.712 66.7058 33.096C66.7058 36.768 64.1858 39.24 59.9618 39.24ZM71.3271 39L82.4871 21.504H85.4631L74.3031 39H71.3271ZM72.5751 30.648C70.1271 30.648 68.7831 28.752 68.7831 26.064C68.7831 23.28 70.3191 21.576 72.6711 21.576C75.0951 21.576 76.4391 23.496 76.4391 26.136C76.4391 29.016 74.8791 30.648 72.5751 30.648ZM72.5991 28.2C73.0311 28.2 73.5111 28.248 73.5111 26.112C73.5111 24 73.0311 24.048 72.5991 24.048C72.2151 24.048 71.7111 23.976 71.7111 26.112C71.7111 28.224 72.1911 28.2 72.5991 28.2ZM84.1431 39.072C81.6951 39.072 80.3511 37.128 80.3511 34.488C80.3511 31.656 81.9111 29.976 84.2391 29.976C86.6631 29.976 88.0071 31.896 88.0071 34.536C88.0071 37.416 86.4711 39.072 84.1431 39.072ZM84.1911 36.6C84.5991 36.6 85.0791 36.648 85.0791 34.512C85.0791 32.4 84.5991 32.448 84.1911 32.448C83.7831 32.448 83.2791 32.376 83.2791 34.512C83.2791 36.648 83.7831 36.6 84.1911 36.6Z" fill="#0BCA63"/>
<defs>
<filter id="filter0_dd_242_481" x="0.1" y="0.1" width="113.5" height="76.5" filterUnits="userSpaceOnUse" color-interpolation-filters="sRGB">
<feFlood flood-opacity="0" result="BackgroundImageFix"/>
<feColorMatrix in="SourceAlpha" type="matrix" values="0 0 0 0 0 0 0 0 0 0 0 0 0 0 0 0 0 0 127 0" result="hardAlpha"/>
<feOffset dy="4"/>
<feGaussianBlur stdDeviation="4.95"/>
<feComposite in2="hardAlpha" operator="out"/>
<feColorMatrix type="matrix" values="0 0 0 0 0.102944 0 0 0 0 0.110606 0 0 0 0 0.150833 0 0 0 0.15 0"/>
<feBlend mode="normal" in2="BackgroundImageFix" result="effect1_dropShadow_242_481"/>
<feColorMatrix in="SourceAlpha" type="matrix" values="0 0 0 0 0 0 0 0 0 0 0 0 0 0 0 0 0 0 127 0" result="hardAlpha"/>
<feOffset dx="6" dy="12"/>
<feGaussianBlur stdDeviation="3.8"/>
<feComposite in2="hardAlpha" operator="out"/>
<feColorMatrix type="matrix" values="0 0 0 0 0.0963333 0 0 0 0 0.119453 0 0 0 0 0.240833 0 0 0 0.02 0"/>
<feBlend mode="normal" in2="effect1_dropShadow_242_481" result="effect2_dropShadow_242_481"/>
<feBlend mode="normal" in="SourceGraphic" in2="effect2_dropShadow_242_481" result="shape"/>
</filter>
</defs>
</svg>
