<svg width="44" height="44" viewBox="0 0 44 44" fill="none" xmlns="http://www.w3.org/2000/svg">
<g clip-path="url(#clip0_125_1268)">
<path d="M34.0648 0H9.93523C4.44816 0 0 4.46875 0 9.98124V34.0188C0 39.5312 4.44816 44 9.93523 44H34.0648C39.5518 44 44 39.5312 44 34.0188V9.98124C44 4.46875 39.5518 0 34.0648 0Z" fill="#000C1B"/>
<path d="M27.8214 12.8081H30.9255L24.1441 20.5956L32.1217 31.1915H25.8749L20.9825 24.7656L15.3837 31.1915H12.2779L19.531 22.8627L11.8783 12.8081H18.2832L22.7055 18.6824L27.8214 12.8081ZM26.7317 29.3249H28.4522L17.3491 14.5771H15.5031L26.7317 29.3249Z" fill="white" fill-opacity="0.39"/>
</g>
<defs>
<clipPath id="clip0_125_1268">
<rect width="44" height="44" fill="white"/>
</clipPath>
</defs>
</svg>
